<svg width="32" height="32" viewBox="0 0 32 32" fill="none" xmlns="http://www.w3.org/2000/svg">
<path fill-rule="evenodd" clip-rule="evenodd" d="M18.8907 11.6693H24.3989V10.0912H18.8907V11.6693ZM20.1956 15.1126C19.8446 15.4697 19.6232 15.9535 19.5327 16.564H23.8167C23.7715 15.9125 23.5489 15.4203 23.1551 15.0812C22.7564 14.7446 22.266 14.5769 21.679 14.5769C21.0431 14.5769 20.5465 14.7555 20.1956 15.1126ZM23.9134 12.994C24.5774 13.286 25.1241 13.7493 25.5546 14.3815C25.9471 14.9389 26.1991 15.5856 26.314 16.3203C26.3813 16.7498 26.4082 17.3724 26.3972 18.1819H19.4716C19.5132 19.1218 19.8409 19.7817 20.4671 20.1594C20.8462 20.3946 21.3023 20.5129 21.838 20.5129C22.4018 20.5129 22.8628 20.3693 23.2163 20.0834C23.4107 19.9277 23.5819 19.713 23.7287 19.4379H26.2663C26.1991 19.9929 25.8909 20.5587 25.3454 21.133C24.4943 22.0439 23.3019 22.5 21.7695 22.5C20.5038 22.5 19.3872 22.1163 18.4223 21.3466C17.4525 20.578 16.9706 19.3257 16.9706 17.5932C16.9706 15.968 17.4072 14.7217 18.2792 13.8542C19.1536 12.9892 20.2848 12.5536 21.6778 12.5536C22.5057 12.5536 23.2505 12.7008 23.9134 12.994ZM8.16168 16.5978V19.9796H11.2827C11.8403 19.9796 12.2757 19.9048 12.5851 19.7564C13.1489 19.4789 13.4302 18.9529 13.4302 18.1735C13.4302 17.5123 13.1587 17.0599 12.612 16.8126C12.3063 16.675 11.877 16.6026 11.3267 16.5978H8.16168ZM8.16168 11.7019V14.4997H11.2876C11.844 14.4997 12.2977 14.3947 12.6475 14.1848C12.9948 13.9749 13.1697 13.6033 13.1697 13.0724C13.1697 12.48 12.9398 12.0903 12.4799 11.8997C12.0813 11.7682 11.5749 11.7019 10.9598 11.7019H8.16168ZM15.1423 10.8513C15.5349 11.3906 15.7318 12.0348 15.7318 12.7865C15.7318 13.5599 15.5349 14.1836 15.1374 14.6541C14.9149 14.9172 14.5883 15.1585 14.1566 15.3756C14.8121 15.6121 15.3062 15.9849 15.6425 16.4952C15.9752 17.0044 16.1427 17.6245 16.1427 18.3532C16.1427 19.1049 15.9519 19.7793 15.5691 20.3753C15.327 20.7699 15.0237 21.1028 14.6593 21.3731C14.2496 21.6832 13.7665 21.8943 13.2076 22.0101C12.6487 22.1247 12.0446 22.1802 11.3915 22.1802H5.59961V9.5H11.811C13.3788 9.52292 14.488 9.97295 15.1423 10.8513Z" fill="white"/>
</svg>
