<svg width="32" height="32" viewBox="0 0 32 32" fill="none" xmlns="http://www.w3.org/2000/svg">
<rect width="32" height="32" fill="white"/>
<path fill-rule="evenodd" clip-rule="evenodd" d="M18.8912 11.6693H24.3993V10.0912H18.8912V11.6693ZM20.196 15.1126C19.8451 15.4697 19.6237 15.9535 19.5332 16.564H23.8172C23.772 15.9125 23.5494 15.4203 23.1556 15.0812C22.7569 14.7446 22.2665 14.5769 21.6795 14.5769C21.0435 14.5769 20.547 14.7555 20.196 15.1126ZM23.9138 12.994C24.5779 13.286 25.1246 13.7493 25.555 14.3815C25.9476 14.9389 26.1995 15.5856 26.3145 16.3203C26.3818 16.7498 26.4087 17.3724 26.3977 18.1819H19.4721C19.5136 19.1218 19.8414 19.7817 20.4676 20.1594C20.8467 20.3946 21.3028 20.5129 21.8385 20.5129C22.4023 20.5129 22.8633 20.3693 23.2168 20.0834C23.4112 19.9277 23.5824 19.713 23.7292 19.4379H26.2668C26.1995 19.9929 25.8914 20.5587 25.3459 21.133C24.4947 22.0439 23.3024 22.5 21.77 22.5C20.5042 22.5 19.3877 22.1163 18.4228 21.3466C17.453 20.578 16.9711 19.3257 16.9711 17.5932C16.9711 15.968 17.4077 14.7217 18.2797 13.8542C19.1541 12.9892 20.2853 12.5536 21.6783 12.5536C22.5062 12.5536 23.251 12.7008 23.9138 12.994ZM8.16217 16.5978V19.9796H11.2832C11.8408 19.9796 12.2762 19.9048 12.5856 19.7564C13.1494 19.4789 13.4307 18.9529 13.4307 18.1735C13.4307 17.5123 13.1592 17.0599 12.6125 16.8126C12.3068 16.675 11.8775 16.6026 11.3272 16.5978H8.16217ZM8.16217 11.7019V14.4997H11.288C11.8445 14.4997 12.2982 14.3947 12.648 14.1848C12.9953 13.9749 13.1702 13.6033 13.1702 13.0724C13.1702 12.48 12.9403 12.0903 12.4804 11.8997C12.0817 11.7682 11.5754 11.7019 10.9603 11.7019H8.16217ZM15.1428 10.8513C15.5354 11.3906 15.7323 12.0348 15.7323 12.7865C15.7323 13.5599 15.5354 14.1836 15.1379 14.6541C14.9153 14.9172 14.5888 15.1585 14.1571 15.3756C14.8126 15.6121 15.3067 15.9849 15.643 16.4952C15.9756 17.0044 16.1432 17.6245 16.1432 18.3532C16.1432 19.1049 15.9524 19.7793 15.5696 20.3753C15.3275 20.7699 15.0242 21.1028 14.6597 21.3731C14.2501 21.6832 13.767 21.8943 13.2081 22.0101C12.6492 22.1247 12.0451 22.1802 11.392 22.1802H5.6001V9.5H11.8115C13.3793 9.52292 14.4885 9.97295 15.1428 10.8513Z" fill="#1E1E1E"/>
</svg>
