<svg width="22" height="14" viewBox="0 0 22 14" fill="none" xmlns="http://www.w3.org/2000/svg">
<path fill-rule="evenodd" clip-rule="evenodd" d="M13.8912 2.66928H19.3993V1.09118H13.8912V2.66928ZM15.196 6.11261C14.8451 6.46973 14.6237 6.95353 14.5332 7.56402H18.8172C18.772 6.91251 18.5494 6.42026 18.1556 6.08124C17.7569 5.74463 17.2665 5.57693 16.6795 5.57693C16.0435 5.57693 15.547 5.75549 15.196 6.11261ZM18.9138 3.99401C19.5779 4.28598 20.1246 4.74927 20.555 5.38147C20.9476 5.93887 21.1995 6.58556 21.3145 7.32031C21.3818 7.74982 21.4087 8.37237 21.3977 9.18193H14.4721C14.5136 10.1218 14.8414 10.7817 15.4676 11.1594C15.8467 11.3946 16.3028 11.5129 16.8385 11.5129C17.4023 11.5129 17.8633 11.3693 18.2168 11.0834C18.4112 10.9277 18.5824 10.713 18.7292 10.4379H21.2668C21.1995 10.9929 20.8914 11.5587 20.3459 12.133C19.4947 13.0439 18.3024 13.5 16.77 13.5C15.5042 13.5 14.3877 13.1163 13.4228 12.3466C12.453 11.578 11.9711 10.3257 11.9711 8.59316C11.9711 6.96801 12.4077 5.72171 13.2797 4.85424C14.1541 3.98918 15.2853 3.55364 16.6783 3.55364C17.5062 3.55364 18.251 3.70083 18.9138 3.99401ZM3.16217 7.59781V10.9796H6.28315C6.84082 10.9796 7.27619 10.9048 7.5856 10.7564C8.14938 10.4789 8.43066 9.95288 8.43066 9.17349C8.43066 8.51233 8.15916 8.05989 7.6125 7.81256C7.30676 7.67502 6.87751 7.60263 6.32718 7.59781H3.16217ZM3.16217 2.70185V5.49971H6.28804C6.84449 5.49971 7.2982 5.39475 7.64797 5.18482C7.99529 4.97489 8.17017 4.60329 8.17017 4.07243C8.17017 3.48004 7.94025 3.09034 7.48042 2.89972C7.08174 2.76821 6.57544 2.70185 5.96029 2.70185H3.16217ZM10.1428 1.85127C10.5354 2.39058 10.7323 3.03484 10.7323 3.78649C10.7323 4.55985 10.5354 5.18361 10.1379 5.65414C9.91534 5.91716 9.58881 6.15845 9.15711 6.37562C9.81261 6.6121 10.3067 6.9849 10.643 7.49525C10.9756 8.00439 11.1432 8.62453 11.1432 9.35325C11.1432 10.1049 10.9524 10.7793 10.5696 11.3753C10.3275 11.7699 10.0242 12.1028 9.65974 12.3731C9.25005 12.6832 8.76699 12.8943 8.2081 13.0101C7.64921 13.1247 7.04507 13.1802 6.39201 13.1802H0.600098V0.5H6.81148C8.37931 0.522923 9.48853 0.972945 10.1428 1.85127Z" fill="#1E1E1E"/>
</svg>
