<svg width="32" height="32" viewBox="0 0 32 32" fill="none" xmlns="http://www.w3.org/2000/svg">
<path d="M15.0861 10.2898L17.1539 8.29796C17.5805 7.8866 18.0871 7.56025 18.6447 7.33754C19.2023 7.11483 19.8 7.00014 20.4036 7C21.0073 6.99986 21.605 7.11429 22.1627 7.33675C22.7205 7.55921 23.2272 7.88534 23.654 8.2965C24.0809 8.70766 24.4194 9.19581 24.6504 9.73305C24.8813 10.2703 25.0001 10.8461 25 11.4276C24.9998 12.009 24.8807 12.5848 24.6495 13.1219C24.4184 13.6591 24.0796 14.147 23.6525 14.558L20.6986 17.4035C20.2719 17.8145 19.7653 18.1406 19.2078 18.363C18.6503 18.5855 18.0527 18.7 17.4493 18.7C16.8458 18.7 16.2483 18.5855 15.6908 18.363C15.1332 18.1406 14.6267 17.8145 14.2 17.4035" stroke="#ffffff" stroke-width="1.8" stroke-linecap="round" stroke-linejoin="round"/>
<path d="M16.9138 21.71L14.8461 23.7018C14.4194 24.1132 13.9128 24.4396 13.3552 24.6623C12.7976 24.885 12.1999 24.9997 11.5963 24.9998C10.9927 24.9999 10.3949 24.8855 9.83721 24.6631C9.2795 24.4406 8.77275 24.1145 8.34591 23.7033C7.91908 23.2921 7.58052 22.804 7.34959 22.2668C7.11865 21.7295 6.99986 21.1537 7 20.5722C7.00014 19.9908 7.11921 19.415 7.35041 18.8779C7.5816 18.3408 7.92039 17.8528 8.34743 17.4418L11.3014 14.5963C11.7281 14.1853 12.2346 13.8592 12.7922 13.6368C13.3497 13.4143 13.9472 13.2998 14.5507 13.2998C15.1541 13.2998 15.7517 13.4143 16.3092 13.6368C16.8667 13.8592 17.3733 14.1853 17.8 14.5963" stroke="#ffffff" stroke-width="1.8" stroke-linecap="round" stroke-linejoin="round"/>
</svg>
