<svg width="32" height="32" viewBox="0 0 32 32" fill="none" xmlns="http://www.w3.org/2000/svg">
<path d="M15.0864 10.2898L17.1541 8.29796C17.5808 7.8866 18.0874 7.56025 18.645 7.33754C19.2026 7.11483 19.8003 7.00014 20.4039 7C21.0075 6.99986 21.6053 7.11429 22.163 7.33675C22.7207 7.55921 23.2274 7.88534 23.6543 8.2965C24.0811 8.70766 24.4197 9.19581 24.6506 9.73305C24.8815 10.2703 25.0003 10.8461 25.0002 11.4276C25.0001 12.009 24.881 12.5848 24.6498 13.1219C24.4186 13.6591 24.0798 14.147 23.6528 14.558L20.6988 17.4035C20.2721 17.8145 19.7656 18.1406 19.208 18.363C18.6505 18.5855 18.053 18.7 17.4495 18.7C16.8461 18.7 16.2485 18.5855 15.691 18.363C15.1335 18.1406 14.6269 17.8145 14.2002 17.4035" stroke="white" stroke-width="1.8" stroke-linecap="round" stroke-linejoin="round"/>
<path d="M16.9138 21.7103L14.8461 23.7021C14.4194 24.1134 13.9128 24.4398 13.3552 24.6625C12.7976 24.8852 12.1999 24.9999 11.5963 25C10.9927 25.0002 10.3949 24.8858 9.83721 24.6633C9.2795 24.4408 8.77275 24.1147 8.34591 23.7035C7.91908 23.2924 7.58052 22.8042 7.34959 22.267C7.11865 21.7298 6.99986 21.154 7 20.5725C7.00014 19.991 7.11921 19.4153 7.35041 18.8781C7.5816 18.341 7.92039 17.853 8.34743 17.442L11.3014 14.5965C11.7281 14.1855 12.2346 13.8595 12.7922 13.637C13.3497 13.4145 13.9472 13.3 14.5507 13.3C15.1541 13.3 15.7517 13.4145 16.3092 13.637C16.8667 13.8595 17.3733 14.1855 17.8 14.5965" stroke="white" stroke-width="1.8" stroke-linecap="round" stroke-linejoin="round"/>
</svg>
