<svg width="46" height="58" viewBox="0 0 46 58" fill="none" xmlns="http://www.w3.org/2000/svg">
<path fill-rule="evenodd" clip-rule="evenodd" d="M23 36.3926C32.8732 36.3926 46 37.5096 46 47.1731C46 57.3526 30.7044 57.9633 24.1434 58L21.7612 58C14.7656 57.9636 0 57.3562 0 47.234C0 37.0431 15.2956 36.4316 21.8566 36.3949L22.6449 36.3927C22.7678 36.3926 22.8862 36.3926 23 36.3926ZM23 40.958C14.581 40.958 4.54426 42.0446 4.54426 47.234C4.54426 51.349 10.7547 53.4369 23 53.4369C35.2453 53.4369 41.4557 51.3277 41.4557 47.1731C41.4557 43.049 35.2453 40.958 23 40.958ZM23 0C31.5765 0 38.5567 7.01251 38.5567 15.629C38.5747 19.7805 36.9721 23.7007 34.0516 26.653C31.1372 29.6084 27.2443 31.2428 23.103 31.258H23C14.4204 31.258 7.44046 24.2455 7.44046 15.629C7.44046 7.01251 14.4204 0 23 0ZM23 4.56543C16.9258 4.56543 11.9847 9.52958 11.9847 15.629C11.9847 21.7284 16.9258 26.6926 23 26.6926H23.0939C26.0144 26.6804 28.7651 25.5269 30.8282 23.4359C32.8944 21.351 34.0244 18.5783 34.0123 15.6381C34.0123 9.52958 29.0711 4.56543 23 4.56543Z" fill="#A2A5AA"/>
</svg>
