<svg width="32" height="32" viewBox="0 0 32 32" fill="none" xmlns="http://www.w3.org/2000/svg">
<rect width="32" height="32" fill="white"/>
<path fill-rule="evenodd" clip-rule="evenodd" d="M16.0001 4.02686C9.37351 4.02686 4 9.44353 4 16.1256C4 21.4712 7.4384 26.0063 12.2064 27.6061C12.8061 27.7181 13.0263 27.3437 13.0263 27.0241C13.0263 26.7356 13.0152 25.7825 13.01 24.7716C9.67158 25.5034 8.96713 23.3441 8.96713 23.3441C8.42126 21.9456 7.63473 21.5738 7.63473 21.5738C6.54596 20.8228 7.7168 20.8383 7.7168 20.8383C8.92182 20.9236 9.55633 22.0851 9.55633 22.0851C10.6266 23.9347 12.3636 23.4 13.0484 23.0908C13.1561 22.3088 13.4671 21.7751 13.8103 21.473C11.1449 21.167 8.34296 20.1296 8.34296 15.4937C8.34296 14.1728 8.81173 13.0935 9.57938 12.2462C9.45478 11.9415 9.04403 10.711 9.69563 9.04444C9.69563 9.04444 10.7033 8.71927 12.9965 10.2846C13.9537 10.0165 14.9803 9.8821 16.0001 9.87749C17.0199 9.8821 18.0473 10.0165 19.0063 10.2846C21.2967 8.71927 22.303 9.04444 22.303 9.04444C22.9562 10.711 22.5453 11.9415 22.4207 12.2462C23.1901 13.0935 23.6557 14.1728 23.6557 15.4937C23.6557 20.1406 20.8484 21.1638 18.1763 21.4634C18.6067 21.8388 18.9902 22.5751 18.9902 23.7039C18.9902 25.3227 18.9763 26.6256 18.9763 27.0241C18.9763 27.3461 19.1923 27.7233 19.8006 27.6045C24.566 26.0029 28 21.4694 28 16.1256C28 9.44353 22.6273 4.02686 16.0001 4.02686Z" fill="#1E1E1E"/>
<path fill-rule="evenodd" clip-rule="evenodd" d="M8.58055 21.3149C8.55417 21.3745 8.46055 21.3923 8.37526 21.3514C8.28838 21.3124 8.23959 21.2312 8.26775 21.1715C8.29354 21.1102 8.38736 21.0932 8.47403 21.1342C8.56111 21.1733 8.6107 21.2552 8.58055 21.3149Z" fill="#1E1E1E"/>
<path fill-rule="evenodd" clip-rule="evenodd" d="M9.06565 21.8561C9.00852 21.9091 8.89685 21.8845 8.82108 21.8007C8.74274 21.7172 8.72806 21.6055 8.78598 21.5518C8.84489 21.4988 8.95318 21.5236 9.03173 21.6071C9.11008 21.6916 9.12535 21.8025 9.06565 21.8561Z" fill="#1E1E1E"/>
<path fill-rule="evenodd" clip-rule="evenodd" d="M9.53775 22.546C9.46436 22.597 9.34436 22.5492 9.27018 22.4426C9.19679 22.3361 9.19679 22.2084 9.27176 22.1572C9.34614 22.106 9.46436 22.152 9.53953 22.2578C9.61272 22.3661 9.61272 22.4938 9.53775 22.546Z" fill="#1E1E1E"/>
<path fill-rule="evenodd" clip-rule="evenodd" d="M10.1849 23.2128C10.1192 23.2852 9.97939 23.2657 9.87705 23.1669C9.77232 23.0703 9.74316 22.9333 9.80901 22.8608C9.87546 22.7882 10.0161 22.8087 10.1192 22.9067C10.2232 23.0031 10.2549 23.1411 10.1849 23.2128Z" fill="#1E1E1E"/>
<path fill-rule="evenodd" clip-rule="evenodd" d="M11.0774 23.5995C11.0485 23.6934 10.9138 23.736 10.7781 23.6961C10.6427 23.6551 10.554 23.5452 10.5814 23.4504C10.6095 23.3559 10.7448 23.3115 10.8815 23.3541C11.0168 23.395 11.1056 23.5041 11.0774 23.5995Z" fill="#1E1E1E"/>
<path fill-rule="evenodd" clip-rule="evenodd" d="M12.0577 23.6714C12.0611 23.7702 11.946 23.8521 11.8036 23.8539C11.6604 23.8571 11.5446 23.7772 11.543 23.68C11.543 23.5802 11.6554 23.499 11.7986 23.4967C11.9411 23.4939 12.0577 23.5732 12.0577 23.6714Z" fill="#1E1E1E"/>
<path fill-rule="evenodd" clip-rule="evenodd" d="M12.9699 23.5164C12.987 23.6128 12.888 23.7118 12.7466 23.7382C12.6075 23.7635 12.4788 23.704 12.4612 23.6084C12.4439 23.5096 12.5447 23.4106 12.6835 23.385C12.8251 23.3604 12.9519 23.4184 12.9699 23.5164Z" fill="#1E1E1E"/>
</svg>
