<svg width="24" height="24" viewBox="0 0 24 24" fill="none" xmlns="http://www.w3.org/2000/svg">
<g id="Github">
<path id="Fill 4" fill-rule="evenodd" clip-rule="evenodd" d="M12.0001 0.0268555C5.37351 0.0268555 0 5.44353 0 12.1256C0 17.4712 3.4384 22.0063 8.20642 23.6061C8.80615 23.7181 9.02632 23.3437 9.02632 23.0241C9.02632 22.7356 9.0152 21.7825 9.01003 20.7716C5.67158 21.5034 4.96713 19.3441 4.96713 19.3441C4.42126 17.9456 3.63473 17.5738 3.63473 17.5738C2.54596 16.8228 3.7168 16.8383 3.7168 16.8383C4.92182 16.9236 5.55633 18.0851 5.55633 18.0851C6.62662 19.9347 8.3636 19.4 9.04838 19.0908C9.15609 18.3088 9.46708 17.7751 9.81026 17.473C7.14487 17.167 4.34296 16.1296 4.34296 11.4937C4.34296 10.1728 4.81173 9.09352 5.57938 8.24624C5.45478 7.9415 5.04403 6.71095 5.69563 5.04444C5.69563 5.04444 6.70332 4.71927 8.99652 6.28461C9.95374 6.01654 10.9803 5.8821 12.0001 5.87749C13.0199 5.8821 14.0473 6.01654 15.0063 6.28461C17.2967 4.71927 18.303 5.04444 18.303 5.04444C18.9562 6.71095 18.5453 7.9415 18.4207 8.24624C19.1901 9.09352 19.6557 10.1728 19.6557 11.4937C19.6557 16.1406 16.8484 17.1638 14.1763 17.4634C14.6067 17.8388 14.9902 18.5751 14.9902 19.7039C14.9902 21.3227 14.9763 22.6256 14.9763 23.0241C14.9763 23.3461 15.1923 23.7233 15.8006 23.6045C20.566 22.0029 24 17.4694 24 12.1256C24 5.44353 18.6273 0.0268555 12.0001 0.0268555Z" fill="#1E1E1E"/>
<path id="Fill 5" fill-rule="evenodd" clip-rule="evenodd" d="M4.58055 17.3149C4.55417 17.3745 4.46055 17.3923 4.37526 17.3514C4.28838 17.3124 4.23959 17.2312 4.26775 17.1715C4.29354 17.1102 4.38736 17.0932 4.47403 17.1342C4.56111 17.1733 4.6107 17.2552 4.58055 17.3149Z" fill="#1E1E1E"/>
<path id="Fill 6" fill-rule="evenodd" clip-rule="evenodd" d="M5.06565 17.8561C5.00852 17.9091 4.89685 17.8845 4.82108 17.8007C4.74274 17.7172 4.72806 17.6055 4.78598 17.5518C4.84489 17.4988 4.95318 17.5236 5.03173 17.6071C5.11008 17.6916 5.12535 17.8025 5.06565 17.8561Z" fill="#1E1E1E"/>
<path id="Fill 7" fill-rule="evenodd" clip-rule="evenodd" d="M5.53775 18.546C5.46436 18.597 5.34436 18.5492 5.27018 18.4426C5.19679 18.3361 5.19679 18.2084 5.27176 18.1572C5.34614 18.106 5.46436 18.152 5.53953 18.2578C5.61272 18.3661 5.61272 18.4938 5.53775 18.546Z" fill="#1E1E1E"/>
<path id="Fill 8" fill-rule="evenodd" clip-rule="evenodd" d="M6.18488 19.2128C6.11923 19.2852 5.97939 19.2657 5.87705 19.1669C5.77232 19.0703 5.74316 18.9333 5.80901 18.8608C5.87546 18.7882 6.01609 18.8087 6.11923 18.9067C6.22316 19.0031 6.2549 19.1411 6.18488 19.2128Z" fill="#1E1E1E"/>
<path id="Fill 9" fill-rule="evenodd" clip-rule="evenodd" d="M7.07745 19.5995C7.04849 19.6934 6.91381 19.736 6.77814 19.6961C6.64267 19.6551 6.55401 19.5452 6.58138 19.4504C6.60954 19.3559 6.74482 19.3115 6.88148 19.3541C7.01675 19.395 7.10561 19.5041 7.07745 19.5995Z" fill="#1E1E1E"/>
<path id="Fill 10" fill-rule="evenodd" clip-rule="evenodd" d="M8.05768 19.6714C8.06105 19.7702 7.94601 19.8521 7.8036 19.8539C7.66039 19.8571 7.54456 19.7772 7.54297 19.68C7.54297 19.5802 7.65543 19.499 7.79864 19.4967C7.94105 19.4939 8.05768 19.5732 8.05768 19.6714Z" fill="#1E1E1E"/>
<path id="Fill 11" fill-rule="evenodd" clip-rule="evenodd" d="M8.96991 19.5164C8.98697 19.6128 8.888 19.7118 8.74658 19.7382C8.60753 19.7635 8.47881 19.704 8.46115 19.6084C8.4439 19.5096 8.54466 19.4106 8.6835 19.385C8.82512 19.3604 8.95187 19.4184 8.96991 19.5164Z" fill="#1E1E1E"/>
</g>
</svg>
