<svg width="32" height="32" viewBox="0 0 32 32" fill="none" xmlns="http://www.w3.org/2000/svg">
<path fill-rule="evenodd" clip-rule="evenodd" d="M16.0008 6.3999C13.3936 6.3999 13.0664 6.4113 12.0424 6.4579C11.0204 6.5047 10.3227 6.66651 9.71234 6.90391C9.08093 7.14911 8.54532 7.47711 8.01172 8.01092C7.47771 8.54452 7.14971 9.08013 6.90371 9.71134C6.66571 10.3219 6.5037 11.0198 6.4577 12.0414C6.4119 13.0654 6.3999 13.3928 6.3999 16C6.3999 18.6072 6.4115 18.9334 6.4579 19.9574C6.5049 20.9795 6.66671 21.6771 6.90391 22.2875C7.14931 22.9189 7.47731 23.4545 8.01112 23.9881C8.54452 24.5221 9.08013 24.8509 9.71114 25.0961C10.3219 25.3335 11.0198 25.4953 12.0416 25.5421C13.0656 25.5887 13.3926 25.6001 15.9996 25.6001C18.607 25.6001 18.9332 25.5887 19.9572 25.5421C20.9793 25.4953 21.6777 25.3335 22.2885 25.0961C22.9197 24.8509 23.4545 24.5221 23.9879 23.9881C24.5219 23.4545 24.8499 22.9189 25.0959 22.2877C25.3319 21.6771 25.4939 20.9793 25.5419 19.9576C25.5879 18.9336 25.5999 18.6072 25.5999 16C25.5999 13.3928 25.5879 13.0656 25.5419 12.0416C25.4939 11.0196 25.3319 10.3219 25.0959 9.71154C24.8499 9.08013 24.5219 8.54452 23.9879 8.01092C23.4539 7.47691 22.9199 7.14891 22.2879 6.90391C21.6759 6.66651 20.9779 6.5047 19.9558 6.4579C18.9318 6.4113 18.6058 6.3999 15.9978 6.3999H16.0008ZM15.1396 8.12996C15.3952 8.12956 15.6804 8.12996 16.0008 8.12996C18.564 8.12996 18.8678 8.13916 19.88 8.18516C20.816 8.22796 21.324 8.38436 21.6624 8.51577C22.1105 8.68977 22.4299 8.89777 22.7657 9.23377C23.1017 9.56978 23.3097 9.88978 23.4841 10.3378C23.6155 10.6758 23.7721 11.1838 23.8147 12.1198C23.8607 13.1318 23.8707 13.4358 23.8707 15.9978C23.8707 18.5599 23.8607 18.8639 23.8147 19.8759C23.7719 20.8119 23.6155 21.3199 23.4841 21.6579C23.3101 22.1059 23.1017 22.4249 22.7657 22.7607C22.4297 23.0967 22.1107 23.3047 21.6624 23.4787C21.3244 23.6107 20.816 23.7667 19.88 23.8095C18.868 23.8555 18.564 23.8655 16.0008 23.8655C13.4374 23.8655 13.1336 23.8555 12.1215 23.8095C11.1855 23.7663 10.6775 23.6099 10.3389 23.4785C9.89093 23.3045 9.57092 23.0965 9.23492 22.7605C8.89892 22.4245 8.69091 22.1053 8.51651 21.6571C8.38511 21.3191 8.22851 20.8111 8.18591 19.8751C8.13991 18.8631 8.13071 18.5591 8.13071 15.9954C8.13071 13.4318 8.13991 13.1294 8.18591 12.1174C8.22871 11.1814 8.38511 10.6734 8.51651 10.335C8.69051 9.88698 8.89892 9.56698 9.23492 9.23097C9.57092 8.89497 9.89093 8.68697 10.3389 8.51257C10.6773 8.38056 11.1855 8.22456 12.1215 8.18156C13.0072 8.14156 13.3504 8.12956 15.1396 8.12756V8.12996ZM21.1253 9.72398C20.4893 9.72398 19.9733 10.2394 19.9733 10.8756C19.9733 11.5116 20.4893 12.0276 21.1253 12.0276C21.7613 12.0276 22.2773 11.5116 22.2773 10.8756C22.2773 10.2396 21.7613 9.72358 21.1253 9.72358V9.72398ZM16.0008 11.07C13.2782 11.07 11.0707 13.2774 11.0707 16C11.0707 18.7227 13.2782 20.9291 16.0008 20.9291C18.7234 20.9291 20.93 18.7227 20.93 16C20.93 13.2774 18.7232 11.07 16.0006 11.07H16.0008ZM16.0008 12.8C17.768 12.8 19.2009 14.2326 19.2009 16C19.2009 17.7673 17.768 19.2001 16.0008 19.2001C14.2334 19.2001 12.8008 17.7673 12.8008 16C12.8008 14.2326 14.2334 12.8 16.0008 12.8Z" fill="#ffffff"/>
</svg>
