<svg width="20" height="20" viewBox="0 0 20 20" fill="none" xmlns="http://www.w3.org/2000/svg">
<path fill-rule="evenodd" clip-rule="evenodd" d="M10.0008 0.399902C7.39358 0.399902 7.06637 0.411302 6.04236 0.457903C5.02035 0.504703 4.32274 0.666505 3.71234 0.903908C3.08093 1.14911 2.54532 1.47711 2.01172 2.01092C1.47771 2.54452 1.14971 3.08013 0.903708 3.71134C0.665705 4.32194 0.503703 5.01975 0.457703 6.04136C0.411902 7.06537 0.399902 7.39278 0.399902 10C0.399902 12.6072 0.411502 12.9334 0.457903 13.9574C0.504903 14.9795 0.666705 15.6771 0.903908 16.2875C1.14931 16.9189 1.47731 17.4545 2.01112 17.9881C2.54452 18.5221 3.08013 18.8509 3.71114 19.0961C4.32194 19.3335 5.01975 19.4953 6.04156 19.5421C7.06557 19.5887 7.39258 19.6001 9.9996 19.6001C12.607 19.6001 12.9332 19.5887 13.9572 19.5421C14.9793 19.4953 15.6777 19.3335 16.2885 19.0961C16.9197 18.8509 17.4545 18.5221 17.9879 17.9881C18.5219 17.4545 18.8499 16.9189 19.0959 16.2877C19.3319 15.6771 19.4939 14.9793 19.5419 13.9576C19.5879 12.9336 19.5999 12.6072 19.5999 10C19.5999 7.39278 19.5879 7.06557 19.5419 6.04156C19.4939 5.01955 19.3319 4.32194 19.0959 3.71154C18.8499 3.08013 18.5219 2.54452 17.9879 2.01092C17.4539 1.47691 16.9199 1.14891 16.2879 0.903908C15.6759 0.666505 14.9779 0.504703 13.9558 0.457903C12.9318 0.411302 12.6058 0.399902 9.9978 0.399902H10.0008ZM9.13958 2.12996C9.39518 2.12956 9.68039 2.12996 10.0008 2.12996C12.564 2.12996 12.8678 2.13916 13.88 2.18516C14.816 2.22796 15.324 2.38436 15.6624 2.51577C16.1105 2.68977 16.4299 2.89777 16.7657 3.23377C17.1017 3.56978 17.3097 3.88978 17.4841 4.33779C17.6155 4.67579 17.7721 5.18379 17.8147 6.1198C17.8607 7.13181 17.8707 7.43582 17.8707 9.99784C17.8707 12.5599 17.8607 12.8639 17.8147 13.8759C17.7719 14.8119 17.6155 15.3199 17.4841 15.6579C17.3101 16.1059 17.1017 16.4249 16.7657 16.7607C16.4297 17.0967 16.1107 17.3047 15.6624 17.4787C15.3244 17.6107 14.816 17.7667 13.88 17.8095C12.868 17.8555 12.564 17.8655 10.0008 17.8655C7.43736 17.8655 7.13356 17.8555 6.12155 17.8095C5.18554 17.7663 4.67754 17.6099 4.33893 17.4785C3.89093 17.3045 3.57092 17.0965 3.23492 16.7605C2.89892 16.4245 2.69091 16.1053 2.51651 15.6571C2.38511 15.3191 2.22851 14.8111 2.18591 13.8751C2.13991 12.8631 2.13071 12.5591 2.13071 9.99544C2.13071 7.43182 2.13991 7.12941 2.18591 6.1174C2.22871 5.18139 2.38511 4.67339 2.51651 4.33499C2.69051 3.88698 2.89892 3.56698 3.23492 3.23097C3.57092 2.89497 3.89093 2.68697 4.33893 2.51257C4.67733 2.38056 5.18554 2.22456 6.12155 2.18156C7.00716 2.14156 7.35036 2.12956 9.13958 2.12756V2.12996ZM15.1253 3.72398C14.4893 3.72398 13.9733 4.23938 13.9733 4.87559C13.9733 5.51159 14.4893 6.0276 15.1253 6.0276C15.7613 6.0276 16.2773 5.51159 16.2773 4.87559C16.2773 4.23958 15.7613 3.72358 15.1253 3.72358V3.72398ZM10.0008 5.06999C7.27815 5.06999 5.07073 7.27741 5.07073 10C5.07073 12.7227 7.27815 14.9291 10.0008 14.9291C12.7234 14.9291 14.93 12.7227 14.93 10C14.93 7.27741 12.7232 5.06999 10.0006 5.06999H10.0008ZM10.0008 6.80001C11.768 6.80001 13.2009 8.23263 13.2009 10C13.2009 11.7673 11.768 13.2001 10.0008 13.2001C8.23341 13.2001 6.80079 11.7673 6.80079 10C6.80079 8.23263 8.23341 6.80001 10.0008 6.80001Z" fill="#1E1E1E"/>
</svg>
