<svg width="32" height="32" viewBox="0 0 32 32" fill="none" xmlns="http://www.w3.org/2000/svg">
<path fill-rule="evenodd" clip-rule="evenodd" d="M16.0013 6.3999C13.3941 6.3999 13.0669 6.4113 12.0428 6.4579C11.0208 6.5047 10.3232 6.66651 9.71283 6.90391C9.08142 7.14911 8.54581 7.47711 8.01221 8.01092C7.4782 8.54452 7.1502 9.08013 6.9042 9.71134C6.66619 10.3219 6.50419 11.0198 6.45819 12.0414C6.41239 13.0654 6.40039 13.3928 6.40039 16C6.40039 18.6072 6.41199 18.9334 6.45839 19.9574C6.50539 20.9795 6.66719 21.6771 6.9044 22.2875C7.1498 22.9189 7.4778 23.4545 8.01161 23.9881C8.54501 24.5221 9.08062 24.8509 9.71163 25.0961C10.3224 25.3335 11.0202 25.4953 12.042 25.5421C13.0661 25.5887 13.3931 25.6001 16.0001 25.6001C18.6075 25.6001 18.9337 25.5887 19.9577 25.5421C20.9797 25.4953 21.6782 25.3335 22.289 25.0961C22.9202 24.8509 23.455 24.5221 23.9884 23.9881C24.5224 23.4545 24.8504 22.9189 25.0964 22.2877C25.3324 21.6771 25.4944 20.9793 25.5424 19.9576C25.5884 18.9336 25.6004 18.6072 25.6004 16C25.6004 13.3928 25.5884 13.0656 25.5424 12.0416C25.4944 11.0196 25.3324 10.3219 25.0964 9.71154C24.8504 9.08013 24.5224 8.54452 23.9884 8.01092C23.4544 7.47691 22.9204 7.14891 22.2884 6.90391C21.6764 6.66651 20.9783 6.5047 19.9563 6.4579C18.9323 6.4113 18.6063 6.3999 15.9983 6.3999H16.0013ZM15.1401 8.12996C15.3957 8.12956 15.6809 8.12996 16.0013 8.12996C18.5645 8.12996 18.8683 8.13916 19.8805 8.18516C20.8165 8.22796 21.3245 8.38436 21.6629 8.51577C22.1109 8.68977 22.4303 8.89777 22.7661 9.23377C23.1022 9.56978 23.3102 9.88978 23.4846 10.3378C23.616 10.6758 23.7726 11.1838 23.8152 12.1198C23.8612 13.1318 23.8712 13.4358 23.8712 15.9978C23.8712 18.5599 23.8612 18.8639 23.8152 19.8759C23.7724 20.8119 23.616 21.3199 23.4846 21.6579C23.3106 22.1059 23.1022 22.4249 22.7661 22.7607C22.4301 23.0967 22.1111 23.3047 21.6629 23.4787C21.3249 23.6107 20.8165 23.7667 19.8805 23.8095C18.8685 23.8555 18.5645 23.8655 16.0013 23.8655C13.4379 23.8655 13.134 23.8555 12.122 23.8095C11.186 23.7663 10.678 23.6099 10.3394 23.4785C9.89142 23.3045 9.57141 23.0965 9.23541 22.7605C8.8994 22.4245 8.6914 22.1053 8.517 21.6571C8.3856 21.3191 8.229 20.8111 8.1864 19.8751C8.1404 18.8631 8.1312 18.5591 8.1312 15.9954C8.1312 13.4318 8.1404 13.1294 8.1864 12.1174C8.2292 11.1814 8.3856 10.6734 8.517 10.335C8.691 9.88698 8.8994 9.56698 9.23541 9.23097C9.57141 8.89497 9.89142 8.68697 10.3394 8.51257C10.6778 8.38056 11.186 8.22456 12.122 8.18156C13.0076 8.14156 13.3509 8.12956 15.1401 8.12756V8.12996ZM21.1258 9.72398C20.4897 9.72398 19.9737 10.2394 19.9737 10.8756C19.9737 11.5116 20.4897 12.0276 21.1258 12.0276C21.7618 12.0276 22.2778 11.5116 22.2778 10.8756C22.2778 10.2396 21.7618 9.72358 21.1258 9.72358V9.72398ZM16.0013 11.07C13.2786 11.07 11.0712 13.2774 11.0712 16C11.0712 18.7227 13.2786 20.9291 16.0013 20.9291C18.7239 20.9291 20.9305 18.7227 20.9305 16C20.9305 13.2774 18.7237 11.07 16.0011 11.07H16.0013ZM16.0013 12.8C17.7685 12.8 19.2013 14.2326 19.2013 16C19.2013 17.7673 17.7685 19.2001 16.0013 19.2001C14.2339 19.2001 12.8013 17.7673 12.8013 16C12.8013 14.2326 14.2339 12.8 16.0013 12.8Z" fill="white"/>
</svg>
