<svg width="16" height="16" viewBox="0 0 16 16" fill="none" xmlns="http://www.w3.org/2000/svg">
<ellipse cx="8" cy="8.00002" rx="8" ry="7.99995" fill="#FBEB4E"/>
<path d="M8.09824 4.61206C8.71019 4.61206 9.27618 4.72927 9.79621 4.9637C10.3162 5.19813 10.7274 5.5169 11.0296 5.92001C11.3318 6.32313 11.4829 6.76283 11.4829 7.23913C11.4829 7.71543 11.3318 8.15575 11.0296 8.56011C10.7274 8.96446 10.3169 9.28385 9.7981 9.51828C9.27933 9.75271 8.71271 9.86992 8.09824 9.86992C7.90433 9.86992 7.70412 9.85628 7.49762 9.82899C6.6011 10.4417 6.12388 10.7518 6.06596 10.7593C6.03826 10.7692 6.01181 10.7679 5.98663 10.7555C5.97656 10.7481 5.969 10.7382 5.96397 10.7258C5.95893 10.7134 5.95641 10.7022 5.95641 10.6923V10.6774C5.97152 10.5806 6.0861 10.1775 6.30016 9.46805C5.81413 9.2299 5.42819 8.91423 5.14237 8.52104C4.85654 8.12784 4.71362 7.70054 4.71362 7.23913C4.71362 6.76283 4.86472 6.32313 5.16692 5.92001C5.46912 5.5169 5.88023 5.19813 6.40026 4.9637C6.9203 4.72927 7.48629 4.61206 8.09824 4.61206Z" fill="#3C1E1E"/>
</svg>
