<svg width="22" height="22" viewBox="0 0 22 22" fill="none" xmlns="http://www.w3.org/2000/svg">
<g id="LinkedIN">
<path id="back" fill-rule="evenodd" clip-rule="evenodd" d="M0 11C0 4.92486 4.92486 0 11 0C17.0751 0 22 4.92486 22 11C22 17.0751 17.0751 22 11 22C4.92486 22 0 17.0751 0 11Z" fill="#1E1E1E"/>
<path id="Shape" fill-rule="evenodd" clip-rule="evenodd" d="M7.93773 6.79373C7.92155 6.05935 7.39639 5.5 6.5436 5.5C5.69082 5.5 5.1333 6.05935 5.1333 6.79373C5.1333 7.51291 5.67434 8.08836 6.51125 8.08836H6.52718C7.39639 8.08836 7.93773 7.51291 7.93773 6.79373ZM7.77355 9.11067H5.28071V16.6006H7.77355V9.11067ZM13.8934 8.93479C15.5338 8.93479 16.7636 10.0055 16.7636 12.3061L16.7635 16.6006H14.2708V12.5935C14.2708 11.587 13.9101 10.9002 13.0076 10.9002C12.3189 10.9002 11.9087 11.3632 11.7286 11.8104C11.6627 11.9707 11.6465 12.194 11.6465 12.4178V16.6008H9.15335C9.15335 16.6008 9.1862 9.81369 9.15335 9.11087H11.6465V10.1718C11.9773 9.66177 12.5699 8.93479 13.8934 8.93479Z" fill="white"/>
</g>
</svg>
