<svg width="32" height="32" viewBox="0 0 32 32" fill="none" xmlns="http://www.w3.org/2000/svg">
<path fill-rule="evenodd" clip-rule="evenodd" d="M5 16C5 9.92486 9.92486 5 16 5C22.0751 5 27 9.92486 27 16C27 22.0751 22.0751 27 16 27C9.92486 27 5 22.0751 5 16Z" fill="#1E1E1E"/>
<path fill-rule="evenodd" clip-rule="evenodd" d="M12.9377 11.7937C12.9215 11.0594 12.3964 10.5 11.5436 10.5C10.6908 10.5 10.1333 11.0594 10.1333 11.7937C10.1333 12.5129 10.6743 13.0884 11.5112 13.0884H11.5272C12.3964 13.0884 12.9377 12.5129 12.9377 11.7937ZM12.7735 14.1107H10.2807V21.6006H12.7735V14.1107ZM18.8934 13.9348C20.5338 13.9348 21.7636 15.0055 21.7636 17.3061L21.7635 21.6006H19.2708V17.5935C19.2708 16.587 18.9101 15.9002 18.0076 15.9002C17.3189 15.9002 16.9087 16.3632 16.7286 16.8104C16.6627 16.9707 16.6465 17.194 16.6465 17.4178V21.6008H14.1533C14.1533 21.6008 14.1862 14.8137 14.1533 14.1109H16.6465V15.1718C16.9773 14.6618 17.5699 13.9348 18.8934 13.9348Z" fill="white"/>
</svg>
