<svg width="32" height="25" viewBox="0 0 32 25" fill="none" xmlns="http://www.w3.org/2000/svg">
<g clip-path="url(#clip0_316_4294)">
<path d="M17.3852 12.2205C17.3852 15.6062 14.6428 18.3509 11.26 18.3509C7.87717 18.3509 5.13452 15.6062 5.13452 12.2205C5.13452 8.83473 7.87696 6.08984 11.26 6.08984C14.643 6.08984 17.3852 8.83473 17.3852 12.2205Z" fill="#1E1E1E"/>
<path d="M24.1049 12.2207C24.1049 15.4077 22.7337 17.9923 21.0422 17.9923C19.3507 17.9923 17.9795 15.4077 17.9795 12.2207C17.9795 9.03379 19.3505 6.44922 21.042 6.44922C22.7335 6.44922 24.1047 9.03296 24.1047 12.2207" fill="#1E1E1E"/>
<path d="M26.8533 12.2207C26.8533 15.0754 26.3712 17.3911 25.7762 17.3911C25.1812 17.3911 24.6992 15.076 24.6992 12.2207C24.6992 9.36532 25.1814 7.05029 25.7762 7.05029C26.3709 7.05029 26.8533 9.36511 26.8533 12.2207Z" fill="#1E1E1E"/>
</g>
<defs>
<clipPath id="clip0_316_4294">
<rect width="34" height="23.8" fill="white" transform="translate(-1 0.299805)"/>
</clipPath>
</defs>
</svg>
