<svg width="32" height="32" viewBox="0 0 32 32" fill="none" xmlns="http://www.w3.org/2000/svg">
<g clip-path="url(#clip0_316_4564)">
<g clip-path="url(#clip1_316_4564)">
<path d="M17.3852 16.2205C17.3852 19.6062 14.6428 22.3509 11.26 22.3509C7.87717 22.3509 5.13452 19.6062 5.13452 16.2205C5.13452 12.8347 7.87696 10.0898 11.26 10.0898C14.643 10.0898 17.3852 12.8347 17.3852 16.2205Z" fill="#ffffff"/>
<path d="M24.1049 16.2207C24.1049 19.4077 22.7337 21.9923 21.0422 21.9923C19.3507 21.9923 17.9795 19.4077 17.9795 16.2207C17.9795 13.0338 19.3505 10.4492 21.042 10.4492C22.7335 10.4492 24.1047 13.033 24.1047 16.2207" fill="#ffffff"/>
<path d="M26.8533 16.2207C26.8533 19.0754 26.3712 21.3911 25.7762 21.3911C25.1812 21.3911 24.6992 19.076 24.6992 16.2207C24.6992 13.3653 25.1814 11.0503 25.7762 11.0503C26.3709 11.0503 26.8533 13.3651 26.8533 16.2207Z" fill="#ffffff"/>
</g>
</g>
<defs>
<clipPath id="clip0_316_4564">
<rect width="32" height="32" fill="white"/>
</clipPath>
<clipPath id="clip1_316_4564">
<rect width="34" height="23.8" fill="white" transform="translate(-1 4.2998)"/>
</clipPath>
</defs>
</svg>
