<svg width="32" height="32" viewBox="0 0 32 32" fill="none" xmlns="http://www.w3.org/2000/svg">
<rect width="32" height="32" fill="white"/>
<path d="M23.1137 7.30859H8.86727C8.43437 7.30923 8.00584 7.39519 7.60619 7.56156C7.20653 7.72793 6.84359 7.97145 6.53811 8.27819C6.23264 8.58493 5.99062 8.94887 5.8259 9.34921C5.66118 9.74955 5.57699 10.1784 5.57814 10.6113V18.4417C5.57712 18.8746 5.6614 19.3034 5.82616 19.7037C5.99093 20.104 6.23295 20.4679 6.5384 20.7746C6.84385 21.0813 7.20674 21.3248 7.60634 21.4912C8.00594 21.6577 8.43441 21.7437 8.86727 21.7445H13.7748L15.4494 24.4712C15.4654 24.4985 15.4836 24.5245 15.5038 24.5489C15.5532 24.634 15.624 24.7046 15.7093 24.7537C15.7945 24.8028 15.8912 24.8287 15.9895 24.8287C16.0879 24.8287 16.1845 24.8028 16.2698 24.7537C16.355 24.7046 16.4259 24.634 16.4752 24.5489C16.4971 24.5243 16.516 24.4972 16.5316 24.4683L18.2033 21.7406H23.1108C23.5437 21.7398 23.9722 21.6538 24.3718 21.4874C24.7713 21.3209 25.1342 21.0774 25.4397 20.7707C25.7451 20.464 25.9872 20.1001 26.1519 19.6998C26.3167 19.2995 26.401 18.8707 26.4 18.4378V10.6094C26.4015 9.73601 26.0562 8.89775 25.44 8.27882C24.8238 7.65988 23.9871 7.31091 23.1137 7.30859Z" fill="#1E1E1E"/>
<path d="M10.2028 13.0495C9.79242 13.0797 9.40708 13.2582 9.1187 13.5517V11.5264H7.84326V16.8379H9.1323V16.4222C9.1323 16.4222 9.43635 16.9701 10.2008 16.9701C10.2008 16.9701 11.9979 16.904 11.9979 14.9884C11.9999 14.9923 11.9338 13.0495 10.2028 13.0495ZM9.92204 15.853C9.75981 15.8531 9.60116 15.8052 9.46619 15.7152C9.33122 15.6252 9.22598 15.4971 9.16381 15.3473C9.10164 15.1974 9.08532 15.0325 9.11692 14.8734C9.14852 14.7143 9.22663 14.5681 9.34135 14.4534C9.45606 14.3387 9.60224 14.2606 9.76136 14.2289C9.92049 14.1973 10.0854 14.2137 10.2353 14.2758C10.3851 14.338 10.5131 14.4432 10.6032 14.5782C10.6932 14.7132 10.7411 14.8718 10.7409 15.0341C10.7396 15.2505 10.6528 15.4576 10.4994 15.6103C10.346 15.763 10.1385 15.8488 9.92204 15.8491V15.853Z" fill="white"/>
<path d="M12.4092 11.4067V12.6365C12.4092 12.6365 12.992 12.6093 12.992 13.6934V16.8378H14.2208V13.403C14.2208 13.403 14.2723 11.4067 12.4092 11.4067Z" fill="white"/>
<path d="M17.2254 13.062C17.2254 13.062 15.1184 13.062 15.1184 15.0301C15.1184 15.0301 15.0504 16.9728 17.2254 16.9728C17.2254 16.9728 19.3799 16.9728 19.3799 15.0301C19.3799 15.0301 19.4508 13.062 17.2254 13.062ZM17.2254 15.8489C17.0631 15.8491 16.9045 15.8012 16.7695 15.7112C16.6345 15.6212 16.5293 15.4931 16.4671 15.3433C16.4049 15.1934 16.3886 15.0285 16.4202 14.8694C16.4518 14.7102 16.5299 14.5641 16.6447 14.4494C16.7594 14.3346 16.9055 14.2565 17.0647 14.2249C17.2238 14.1933 17.3887 14.2096 17.5386 14.2718C17.6884 14.334 17.8165 14.4392 17.9065 14.5742C17.9965 14.7092 18.0444 14.8678 18.0442 15.0301C18.044 15.2472 17.9576 15.4553 17.8041 15.6088C17.6506 15.7623 17.4425 15.8487 17.2254 15.8489Z" fill="white"/>
<path d="M22.8978 13.1916V13.5481C22.7656 13.3944 22.6016 13.2713 22.4171 13.1875C22.2325 13.1036 22.032 13.0609 21.8293 13.0624C21.8293 13.0624 20.0254 12.9866 20.0254 15.0168C20.0254 15.0168 20.006 16.9081 21.7797 16.9081C21.7797 16.9081 22.5034 16.9373 22.8998 16.4224V16.7197C22.8998 16.7197 22.9891 17.6512 22.0867 17.6512H21.7778V18.781H22.2732C22.2732 18.781 24.1363 18.8004 24.1363 16.7886V13.1945L22.8978 13.1916ZM22.1353 15.8493C21.973 15.8495 21.8144 15.8016 21.6794 15.7115C21.5444 15.6215 21.4392 15.4935 21.377 15.3436C21.3149 15.1938 21.2985 15.0289 21.3301 14.8697C21.3617 14.7106 21.4398 14.5644 21.5546 14.4497C21.6693 14.335 21.8155 14.2569 21.9746 14.2253C22.1337 14.1937 22.2986 14.21 22.4485 14.2722C22.5983 14.3344 22.7264 14.4396 22.8164 14.5746C22.9064 14.7095 22.9543 14.8682 22.9541 15.0304C22.9541 15.2476 22.8679 15.4559 22.7143 15.6095C22.5607 15.763 22.3524 15.8493 22.1353 15.8493Z" fill="white"/>
</svg>
