<svg width="22" height="18" viewBox="0 0 22 18" fill="none" xmlns="http://www.w3.org/2000/svg">
<path d="M18.1137 0.308594H3.86727C3.43437 0.309231 3.00584 0.395192 2.60619 0.561563C2.20653 0.727933 1.84359 0.97145 1.53811 1.27819C1.23264 1.58493 0.99062 1.94887 0.8259 2.34921C0.66118 2.74955 0.576987 3.17843 0.578137 3.61133V11.4417C0.577115 11.8746 0.661395 12.3034 0.826161 12.7037C0.990927 13.104 1.23295 13.4679 1.5384 13.7746C1.84385 14.0813 2.20674 14.3248 2.60634 14.4912C3.00594 14.6577 3.43441 14.7437 3.86727 14.7445H8.77475L10.4494 17.4712C10.4654 17.4985 10.4836 17.5245 10.5038 17.5489C10.5532 17.634 10.624 17.7046 10.7093 17.7537C10.7945 17.8028 10.8912 17.8287 10.9895 17.8287C11.0879 17.8287 11.1845 17.8028 11.2698 17.7537C11.355 17.7046 11.4259 17.634 11.4752 17.5489C11.4971 17.5243 11.516 17.4972 11.5316 17.4683L13.2033 14.7406H18.1108C18.5437 14.7398 18.9722 14.6538 19.3718 14.4874C19.7713 14.3209 20.1342 14.0774 20.4397 13.7707C20.7451 13.464 20.9872 13.1001 21.1519 12.6998C21.3167 12.2995 21.401 11.8707 21.4 11.4378V3.60939C21.4015 2.73601 21.0562 1.89775 20.44 1.27882C19.8238 0.65988 18.9871 0.31091 18.1137 0.308594Z" fill="#1E1E1E"/>
<path d="M5.20278 6.04951C4.79242 6.07971 4.40708 6.25822 4.1187 6.55172V4.52637H2.84326V9.83794H4.1323V9.42219C4.1323 9.42219 4.43635 9.97005 5.20083 9.97005C5.20083 9.97005 6.99791 9.904 6.99791 7.98841C6.99985 7.9923 6.9338 6.04951 5.20278 6.04951ZM4.92204 8.85295C4.75981 8.85314 4.60116 8.8052 4.46619 8.71519C4.33122 8.62517 4.22598 8.49714 4.16381 8.34729C4.10164 8.19744 4.08532 8.03252 4.11692 7.87339C4.14852 7.71426 4.22663 7.56809 4.34135 7.45337C4.45606 7.33865 4.60224 7.26055 4.76136 7.22895C4.92049 7.19734 5.08542 7.21366 5.23527 7.27584C5.38511 7.33801 5.51315 7.44324 5.60316 7.57821C5.69317 7.71319 5.74112 7.87183 5.74093 8.03407C5.73964 8.2505 5.65284 8.45764 5.49943 8.61031C5.34603 8.76299 5.13847 8.84881 4.92204 8.84907V8.85295Z" fill="white"/>
<path d="M7.40918 4.40674V5.63652C7.40918 5.63652 7.99202 5.60932 7.99202 6.6934V9.8378H9.22083V6.40295C9.22083 6.40295 9.27231 4.40674 7.40918 4.40674Z" fill="white"/>
<path d="M12.2254 6.06201C12.2254 6.06201 10.1184 6.06201 10.1184 8.03006C10.1184 8.03006 10.0504 9.97284 12.2254 9.97284C12.2254 9.97284 14.3799 9.97284 14.3799 8.03006C14.3799 8.03006 14.4508 6.06201 12.2254 6.06201ZM12.2254 8.84894C12.0631 8.84913 11.9045 8.80119 11.7695 8.71117C11.6345 8.62116 11.5293 8.49313 11.4671 8.34328C11.4049 8.19343 11.3886 8.0285 11.4202 7.86938C11.4518 7.71025 11.5299 7.56407 11.6447 7.44936C11.7594 7.33464 11.9055 7.25654 12.0647 7.22493C12.2238 7.19333 12.3887 7.20965 12.5386 7.27182C12.6884 7.33399 12.8165 7.43923 12.9065 7.5742C12.9965 7.70918 13.0444 7.86782 13.0442 8.03006C13.044 8.24716 12.9576 8.45529 12.8041 8.60881C12.6506 8.76232 12.4425 8.84868 12.2254 8.84894Z" fill="white"/>
<path d="M17.8978 6.19157V6.54807C17.7656 6.39439 17.6016 6.27133 17.4171 6.18746C17.2325 6.10358 17.032 6.0609 16.8293 6.06238C16.8293 6.06238 15.0254 5.98661 15.0254 8.01682C15.0254 8.01682 15.006 9.90812 16.7797 9.90812C16.7797 9.90812 17.5034 9.93726 17.8998 9.42243V9.71967C17.8998 9.71967 17.9891 10.6512 17.0867 10.6512H16.7778V11.781H17.2732C17.2732 11.781 19.1363 11.8004 19.1363 9.78864V6.19449L17.8978 6.19157ZM17.1353 8.84931C16.973 8.8495 16.8144 8.80155 16.6794 8.71154C16.5444 8.62152 16.4392 8.49349 16.377 8.34364C16.3149 8.19379 16.2985 8.02887 16.3301 7.86974C16.3617 7.71061 16.4398 7.56444 16.5546 7.44972C16.6693 7.33501 16.8155 7.2569 16.9746 7.2253C17.1337 7.19369 17.2986 7.21001 17.4485 7.27219C17.5983 7.33436 17.7264 7.43959 17.8164 7.57457C17.9064 7.70954 17.9543 7.86819 17.9541 8.03042C17.9541 8.2476 17.8679 8.45589 17.7143 8.60946C17.5607 8.76303 17.3524 8.84931 17.1353 8.84931Z" fill="white"/>
</svg>
