<svg width="22" height="22" viewBox="0 0 22 22" fill="none" xmlns="http://www.w3.org/2000/svg">
<g clip-path="url(#clip0_316_4548)">
<path d="M8.01489 0.497036C4.58105 0.751121 1.66191 0.984792 1.52466 1.01215C1.13984 1.08078 0.789767 1.34181 0.625155 1.68537L0.480957 1.98767L0.494856 9.19237L0.515269 16.3971L0.735041 16.8436C0.858826 17.0907 1.69665 18.2447 2.61005 19.4326C4.41644 21.7745 4.54674 21.9053 5.23342 21.9739C5.43278 21.9943 6.92992 21.9257 8.55085 21.8297C10.1787 21.7268 12.7882 21.5687 14.3544 21.4796C21.0436 21.0735 20.7 21.1078 21.0844 20.7782C21.5652 20.3799 21.5309 21.0323 21.5513 12.2757C21.5652 4.85122 21.5582 4.3639 21.4484 4.13718C21.3181 3.88309 21.0844 3.70458 18.0349 1.56159C15.9953 0.133066 15.8511 0.0574921 14.9373 0.0435935C14.5598 0.0301292 11.4418 0.236003 8.01489 0.497036ZM15.7343 1.4378C16.0227 1.5681 18.1314 3.03788 18.4402 3.31976C18.5227 3.40229 18.5501 3.47091 18.5088 3.51217C18.4128 3.5947 5.36329 4.37085 4.98585 4.31569C4.81429 4.28832 4.56021 4.18539 4.41601 4.08897C3.81837 3.68373 2.33512 2.46804 2.33512 2.379C2.33512 2.14533 2.28691 2.14533 8.10436 1.72663C9.21712 1.65106 11.0439 1.51381 12.1567 1.42434C14.5668 1.23193 15.2882 1.23888 15.7343 1.4378ZM19.8826 5.19478C19.9786 5.29076 20.0611 5.47622 20.0885 5.65473C20.1089 5.81978 20.1228 8.89659 20.1089 12.4816C20.0885 18.6352 20.0815 19.02 19.9647 19.1985C19.896 19.3084 19.7588 19.4252 19.6554 19.4596C19.3675 19.5764 5.69338 20.3525 5.41193 20.27C5.28163 20.2357 5.10269 20.1258 5.0067 20.0298L4.84165 19.8513L4.82124 13.2169C4.80734 8.56042 4.82124 6.49994 4.8764 6.31448C4.91766 6.17724 5.0206 6.01219 5.11007 5.95746C5.23386 5.87494 6.04432 5.80631 8.83273 5.6417C10.7903 5.53182 13.8189 5.34636 15.5566 5.24342C19.6902 4.9889 19.6767 4.9889 19.8826 5.19478Z" fill="#1E1E1E"/>
<path d="M16.2081 7.46799C15.4663 7.5162 14.8069 7.58483 14.7314 7.62609C14.5046 7.74292 14.3674 7.93533 14.34 8.15511C14.3196 8.38183 14.3882 8.40919 15.1297 8.49866L15.4524 8.53992V11.4725C15.4524 13.2168 15.425 14.3708 15.3907 14.3365C15.3564 14.2953 14.3813 12.812 13.2203 11.0399C12.0598 9.26135 11.0982 7.79808 11.0843 7.78462C11.0704 7.77072 10.3151 7.81198 9.40863 7.87409C8.29587 7.94967 7.68476 8.01829 7.56098 8.08692C7.36162 8.18985 7.14185 8.55382 7.14185 8.79444C7.14185 8.93864 7.40288 9.01421 7.95231 9.01421H8.24071V17.4481L7.7738 17.5923C7.40983 17.7022 7.28604 17.7708 7.22437 17.908C7.11448 18.1417 7.12143 18.3545 7.23132 18.3545C7.27258 18.3545 8.04873 18.3063 8.94128 18.2516C10.7064 18.1487 10.9053 18.1004 11.0908 17.7365C11.146 17.6266 11.1937 17.5098 11.1937 17.4754C11.1937 17.4481 10.9535 17.3656 10.6647 17.2969C10.3694 17.2283 10.074 17.1597 10.0123 17.1458C9.89551 17.1115 9.88856 16.8986 9.88856 13.9452V10.7789L11.9764 14.0551C14.1672 17.4889 14.4421 17.8807 14.7787 18.0522C15.1978 18.272 16.2624 18.1209 16.7979 17.7708L16.963 17.6679L16.9769 12.984L16.9973 8.29322L17.3613 8.2246C17.7938 8.14208 17.9932 7.94315 17.9932 7.59959C17.9932 7.37982 17.9793 7.36592 17.7734 7.37287C17.6505 7.37852 16.943 7.41978 16.2081 7.46799Z" fill="#1E1E1E"/>
</g>
<defs>
<clipPath id="clip0_316_4548">
<rect width="22" height="22" fill="white"/>
</clipPath>
</defs>
</svg>
