<svg width="32" height="32" viewBox="0 0 32 32" fill="none" xmlns="http://www.w3.org/2000/svg">
<g clip-path="url(#clip0_316_4565)">
<path d="M13.0149 5.49704C9.58105 5.75112 6.66191 5.98479 6.52466 6.01215C6.13984 6.08078 5.78977 6.34181 5.62516 6.68537L5.48096 6.98767L5.49486 14.1924L5.51527 21.3971L5.73504 21.8436C5.85883 22.0907 6.69665 23.2447 7.61005 24.4326C9.41644 26.7745 9.54674 26.9053 10.2334 26.9739C10.4328 26.9943 11.9299 26.9257 13.5509 26.8297C15.1787 26.7268 17.7882 26.5687 19.3544 26.4796C26.0436 26.0735 25.7 26.1078 26.0844 25.7782C26.5652 25.3799 26.5309 26.0323 26.5513 17.2757C26.5652 9.85122 26.5582 9.3639 26.4484 9.13718C26.3181 8.88309 26.0844 8.70458 23.0349 6.56159C20.9953 5.13307 20.8511 5.05749 19.9373 5.04359C19.5598 5.03013 16.4418 5.236 13.0149 5.49704ZM20.7343 6.4378C21.0227 6.5681 23.1314 8.03788 23.4402 8.31976C23.5227 8.40229 23.5501 8.47091 23.5088 8.51217C23.4128 8.5947 10.3633 9.37085 9.98585 9.31569C9.81429 9.28832 9.56021 9.18539 9.41601 9.08897C8.81837 8.68373 7.33512 7.46804 7.33512 7.379C7.33512 7.14533 7.28691 7.14533 13.1044 6.72663C14.2171 6.65106 16.0439 6.51381 17.1567 6.42434C19.5668 6.23193 20.2882 6.23888 20.7343 6.4378ZM24.8826 10.1948C24.9786 10.2908 25.0611 10.4762 25.0885 10.6547C25.1089 10.8198 25.1228 13.8966 25.1089 17.4816C25.0885 23.6352 25.0815 24.02 24.9647 24.1985C24.896 24.3084 24.7588 24.4252 24.6554 24.4596C24.3675 24.5764 10.6934 25.3525 10.4119 25.27C10.2816 25.2357 10.1027 25.1258 10.0067 25.0298L9.84165 24.8513L9.82124 18.2169C9.80734 13.5604 9.82124 11.4999 9.8764 11.3145C9.91766 11.1772 10.0206 11.0122 10.1101 10.9575C10.2339 10.8749 11.0443 10.8063 13.8327 10.6417C15.7903 10.5318 18.8189 10.3464 20.5566 10.2434C24.6902 9.9889 24.6767 9.9889 24.8826 10.1948Z" fill="#1E1E1E"/>
<path d="M21.2081 12.468C20.4663 12.5162 19.8069 12.5848 19.7314 12.6261C19.5046 12.7429 19.3674 12.9353 19.34 13.1551C19.3196 13.3818 19.3882 13.4092 20.1297 13.4987L20.4524 13.5399V16.4725C20.4524 18.2168 20.425 19.3708 20.3907 19.3365C20.3564 19.2953 19.3813 17.812 18.2203 16.0399C17.0598 14.2613 16.0982 12.7981 16.0843 12.7846C16.0704 12.7707 15.3151 12.812 14.4086 12.8741C13.2959 12.9497 12.6848 13.0183 12.561 13.0869C12.3616 13.1899 12.1418 13.5538 12.1418 13.7944C12.1418 13.9386 12.4029 14.0142 12.9523 14.0142H13.2407V22.4481L12.7738 22.5923C12.4098 22.7022 12.286 22.7708 12.2244 22.908C12.1145 23.1417 12.1214 23.3545 12.2313 23.3545C12.2726 23.3545 13.0487 23.3063 13.9413 23.2516C15.7064 23.1487 15.9053 23.1004 16.0908 22.7365C16.146 22.6266 16.1937 22.5098 16.1937 22.4754C16.1937 22.4481 15.9535 22.3656 15.6647 22.2969C15.3694 22.2283 15.074 22.1597 15.0123 22.1458C14.8955 22.1115 14.8886 21.8986 14.8886 18.9452V15.7789L16.9764 19.0551C19.1672 22.4889 19.4421 22.8807 19.7787 23.0522C20.1978 23.272 21.2624 23.1209 21.7979 22.7708L21.963 22.6679L21.9769 17.984L21.9973 13.2932L22.3613 13.2246C22.7938 13.1421 22.9932 12.9432 22.9932 12.5996C22.9932 12.3798 22.9793 12.3659 22.7734 12.3729C22.6505 12.3785 21.943 12.4198 21.2081 12.468Z" fill="#1E1E1E"/>
</g>
<defs>
<clipPath id="clip0_316_4565">
<rect width="22" height="22" fill="white" transform="translate(5 5)"/>
</clipPath>
</defs>
</svg>
