<svg width="32" height="32" viewBox="0 0 32 32" fill="none" xmlns="http://www.w3.org/2000/svg">
<circle cx="16" cy="16" r="15.5" fill="white" stroke="#DFDFDF"/>
<path d="M13.7732 16.75C13.7732 15.5074 14.7806 14.5 16.0232 14.5C17.2659 14.5 18.2732 15.5074 18.2732 16.75C18.2732 17.9926 17.2659 19 16.0232 19C14.7806 19 13.7732 17.9926 13.7732 16.75Z" fill="#6E6F73"/>
<path fill-rule="evenodd" clip-rule="evenodd" d="M12.7803 9.15901C13.2023 8.73705 13.7746 8.5 14.3713 8.5H17.6287C18.2254 8.5 18.7977 8.73705 19.2197 9.15901L19.841 9.78033C19.9816 9.92098 20.1724 10 20.3713 10H22.75C23.9931 10 25 11.0086 25 12.2507V21.2493C25 22.4914 23.9931 23.5 22.75 23.5H9.25C8.00736 23.5 7 22.4926 7 21.25V12.25C7 11.0074 8.00736 10 9.25 10H11.6287C11.8276 10 12.0184 9.92098 12.159 9.78033L12.7803 9.15901ZM10.75 13C10.3358 13 10 13.3358 10 13.75C10 14.1642 10.3358 14.5 10.75 14.5H10.7575C11.1717 14.5 11.5075 14.1642 11.5075 13.75C11.5075 13.3358 11.1717 13 10.7575 13H10.75ZM16.0232 13C13.9521 13 12.2732 14.6789 12.2732 16.75C12.2732 18.8211 13.9521 20.5 16.0232 20.5C18.0943 20.5 19.7732 18.8211 19.7732 16.75C19.7732 14.6789 18.0943 13 16.0232 13Z" fill="#6E6F73"/>
</svg>
