<svg width="28" height="15" viewBox="0 0 28 15" fill="none" xmlns="http://www.w3.org/2000/svg">
<path d="M12.5469 0.328125V14.3594H11.0625V6.57812H8.17188V5.35938H11.0625V0.328125H12.5469ZM0.703125 10.4531C2.84375 9.42969 4.35156 6.78125 4.35938 4.26562V2.95312H1.26562V1.73438H8.96875V2.95312H5.85938V4.26562C5.85938 6.63281 7.35156 9.1875 9.5 10.1406L8.60938 11.3281C6.99219 10.5469 5.75 8.91406 5.125 7.00781C4.5 9.03906 3.22656 10.7812 1.60938 11.6094L0.703125 10.4531ZM19.5781 2.90625C19.5703 4.6875 20.8125 6.3125 22.9375 6.98438L22.2344 8.14062C20.6406 7.63281 19.4766 6.57812 18.8594 5.25C18.25 6.78125 17.0234 7.99219 15.3438 8.57812L14.5781 7.39062C16.7656 6.67188 18.0859 4.86719 18.0938 2.92188V2.53125H15.0156V1.32812H22.5938V2.53125H19.5781V2.90625ZM16.4688 11.6719C16.4688 10.0312 18.2578 9.07031 21.1719 9.07812C24.0547 9.07031 25.8125 10.0312 25.8125 11.6719C25.8125 13.3359 24.0547 14.3047 21.1719 14.2969C18.2578 14.3047 16.4688 13.3359 16.4688 11.6719ZM17.9531 11.6719C17.9453 12.6094 19.1484 13.1328 21.1719 13.125C23.1797 13.1328 24.3672 12.6094 24.3594 11.6719C24.3672 10.7578 23.1797 10.2422 21.1719 10.25C19.1484 10.2422 17.9453 10.7578 17.9531 11.6719ZM24.2031 8.73438V0.328125H25.6875V3.79688H27.7188V5.01562H25.6875V8.73438H24.2031Z" fill="white"/>
</svg>
