<svg width="16" height="16" viewBox="0 0 16 16" fill="none" xmlns="http://www.w3.org/2000/svg">
<path d="M8 8C8.82843 8 9.5 7.32843 9.5 6.5C9.5 5.67157 8.82843 5 8 5C7.17157 5 6.5 5.67157 6.5 6.5C6.5 7.32843 7.17157 8 8 8Z" stroke="#A2A5AA" stroke-linecap="round" stroke-linejoin="round"/>
<path d="M12.5 6.61538C12.5 10.7692 8 14 8 14C8 14 3.5 10.7692 3.5 6.61538C3.5 5.39131 3.97411 4.21737 4.81802 3.35181C5.66193 2.48626 6.80653 2 8 2C9.19347 2 10.3381 2.48626 11.182 3.35181C12.0259 4.21737 12.5 5.39131 12.5 6.61538V6.61538Z" stroke="#A2A5AA" stroke-linecap="round" stroke-linejoin="round"/>
</svg>
