<svg width="16" height="16" viewBox="0 0 16 16" fill="none" xmlns="http://www.w3.org/2000/svg">
<path d="M9.33317 7.99984C9.33317 8.73622 8.73622 9.33317 7.99984 9.33317C7.26346 9.33317 6.6665 8.73622 6.6665 7.99984C6.6665 7.26346 7.26346 6.6665 7.99984 6.6665C8.73622 6.6665 9.33317 7.26346 9.33317 7.99984Z" stroke="#A2A5AA"/>
<path d="M6.88574 2.22383C7.15396 1.03639 8.84587 1.03639 9.1141 2.22383L9.20882 2.64317C9.38266 3.41275 10.2658 3.77856 10.9329 3.3573L11.2964 3.12776C12.3257 2.47778 13.5221 3.67415 12.8721 4.70345L12.6425 5.06695C12.2213 5.73405 12.5871 6.61718 13.3567 6.79102L13.776 6.88574C14.9634 7.15396 14.9634 8.84588 13.776 9.1141L13.3567 9.20882C12.5871 9.38266 12.2213 10.2658 12.6425 10.9329L12.8721 11.2964C13.5221 12.3257 12.3257 13.5221 11.2964 12.8721L10.9329 12.6425C10.2658 12.2213 9.38266 12.5871 9.20882 13.3567L9.1141 13.776C8.84587 14.9634 7.15396 14.9634 6.88574 13.776L6.79101 13.3567C6.61718 12.5871 5.73405 12.2213 5.06695 12.6425L4.70345 12.8721C3.67414 13.5221 2.47778 12.3257 3.12776 11.2964L3.3573 10.9329C3.77856 10.2658 3.41275 9.38266 2.64317 9.20882L2.22383 9.1141C1.03639 8.84588 1.03639 7.15396 2.22383 6.88574L2.64317 6.79102C3.41275 6.61718 3.77856 5.73405 3.3573 5.06695L3.12776 4.70345C2.47778 3.67414 3.67415 2.47778 4.70345 3.12776L5.06695 3.3573C5.73405 3.77856 6.61718 3.41275 6.79101 2.64317L6.88574 2.22383Z" stroke="#A2A5AA"/>
</svg>
