<svg width="32" height="32" viewBox="0 0 32 32" fill="none" xmlns="http://www.w3.org/2000/svg">
<g clip-path="url(#clip0_316_4563)">
<path d="M20.7854 15.4074C20.69 15.3607 20.5934 15.3162 20.4956 15.2741C20.3253 12.0802 18.6092 10.2523 15.7266 10.2335C15.7139 10.2335 15.7001 10.2335 15.6875 10.2335C13.9633 10.2335 12.53 10.982 11.6478 12.3433L13.2328 13.4485C13.8919 12.4322 14.926 12.2147 15.6886 12.2147C15.6978 12.2147 15.7059 12.2147 15.7151 12.2147C16.6641 12.2205 17.3795 12.5012 17.8431 13.0486C18.1801 13.4474 18.4056 13.997 18.5171 14.6917C17.6763 14.5467 16.7664 14.5011 15.7933 14.5584C13.0534 14.7186 11.2923 16.3431 11.4097 18.6014C11.4695 19.7463 12.0308 20.7322 12.9901 21.3754C13.8011 21.9193 14.8444 22.1859 15.9302 22.1251C17.3634 22.0456 18.4872 21.4889 19.2717 20.4726C19.8675 19.7007 20.2437 18.7008 20.4105 17.4401C21.0937 17.8587 21.5998 18.4107 21.8793 19.0739C22.3544 20.2001 22.382 22.0526 20.8959 23.5624C19.5938 24.8851 18.0283 25.457 15.6633 25.4746C13.0396 25.4547 11.0554 24.5998 9.7648 22.9321C8.55703 21.3708 7.93244 19.1148 7.90943 16.2284C7.93244 13.3421 8.55703 11.0861 9.7648 9.52482C11.0554 7.85711 13.0396 7.0022 15.6633 6.98232C18.3055 7.0022 20.3253 7.86178 21.6642 9.53769C22.321 10.3599 22.8157 11.3925 23.1423 12.5971L25 12.0931C24.6043 10.6101 23.982 9.33186 23.1343 8.27228C21.4181 6.1239 18.9059 5.02339 15.6702 5H15.6576C12.4277 5.02222 9.94424 6.12741 8.27637 8.28398C6.79138 10.2031 6.02531 12.8731 6 16.2191V16.2273V16.2355C6.02531 19.5826 6.79138 22.2526 8.27637 24.1706C9.94424 26.3271 12.4277 27.4312 15.6576 27.4545H15.6702C18.5413 27.4347 20.5646 26.6698 22.2325 24.9764C24.4134 22.7601 24.3478 19.9837 23.6289 18.2786C23.1136 17.0565 22.1301 16.0635 20.7854 15.4074ZM15.8278 20.1463C14.627 20.2153 13.3789 19.6668 13.318 18.4926C13.2719 17.6225 13.9276 16.6506 15.9014 16.5349C16.128 16.522 16.3489 16.515 16.5674 16.515C17.2852 16.515 17.9558 16.5863 18.5654 16.7208C18.3377 19.6095 17.0034 20.0785 15.8278 20.144V20.1463Z" fill="#ffffff"/>
</g>
<defs>
<clipPath id="clip0_316_4563">
<rect width="19" height="22.4545" fill="white" transform="translate(6 5)"/>
</clipPath>
</defs>
</svg>
