<svg width="19" height="23" viewBox="0 0 19 23" fill="none" xmlns="http://www.w3.org/2000/svg">
<g clip-path="url(#clip0_316_4538)">
<path d="M14.7854 10.4074C14.69 10.3607 14.5934 10.3162 14.4956 10.2741C14.3253 7.0802 12.6092 5.25226 9.7266 5.23355C9.71395 5.23355 9.70015 5.23355 9.68749 5.23355C7.96325 5.23355 6.53003 5.98203 5.64778 7.34334L7.23284 8.44852C7.89194 7.43222 8.92602 7.21469 9.68864 7.21469C9.69785 7.21469 9.7059 7.21469 9.7151 7.21469C10.6641 7.22054 11.3795 7.50122 11.8431 8.04855C12.1801 8.44735 12.4056 8.99702 12.5171 9.69171C11.6763 9.54669 10.7664 9.50108 9.79332 9.55839C7.0534 9.71861 5.29235 11.3431 5.40967 13.6014C5.46949 14.7463 6.03082 15.7322 6.99013 16.3754C7.80107 16.9193 8.84435 17.1859 9.9302 17.1251C11.3634 17.0456 12.4872 16.4889 13.2717 15.4726C13.8675 14.7007 14.2437 13.7008 14.4105 12.4401C15.0937 12.8587 15.5998 13.4107 15.8793 14.0739C16.3544 15.2001 16.382 17.0526 14.8959 18.5624C13.5938 19.8851 12.0283 20.457 9.66334 20.4746C7.03959 20.4547 5.05539 19.5998 3.7648 17.9321C2.55703 16.3708 1.93244 14.1148 1.90943 11.2284C1.93244 8.3421 2.55703 6.08612 3.7648 4.52482C5.05539 2.85711 7.03959 2.0022 9.66334 1.98232C12.3055 2.0022 14.3253 2.86178 15.6642 4.53769C16.321 5.35985 16.8157 6.39253 17.1423 7.59712L19 7.09306C18.6043 5.61013 17.982 4.33186 17.1343 3.27228C15.4181 1.1239 12.9059 0.0233902 9.67024 0H9.65759C6.42765 0.0222206 3.94424 1.12741 2.27637 3.28398C0.791379 5.20314 0.0253057 7.87313 0 11.2191V11.2273V11.2355C0.0253057 14.5826 0.791379 17.2526 2.27637 19.1706C3.94424 21.3271 6.42765 22.4312 9.65759 22.4545H9.67024C12.5413 22.4347 14.5646 21.6698 16.2325 19.9764C18.4134 17.7601 18.3478 14.9837 17.6289 13.2786C17.1136 12.0565 16.1301 11.0635 14.7854 10.4074ZM9.82782 15.1463C8.62695 15.2153 7.37892 14.6668 7.31796 13.4926C7.27195 12.6225 7.92759 11.6506 9.90144 11.5349C10.128 11.522 10.3489 11.515 10.5674 11.515C11.2852 11.515 11.9558 11.5863 12.5654 11.7208C12.3377 14.6095 11.0034 15.0785 9.82782 15.144V15.1463Z" fill="#1E1E1E"/>
</g>
<defs>
<clipPath id="clip0_316_4538">
<rect width="19" height="22.4545" fill="white"/>
</clipPath>
</defs>
</svg>
