<svg width="32" height="32" viewBox="0 0 32 32" fill="none" xmlns="http://www.w3.org/2000/svg">
<g clip-path="url(#clip0_316_4562)">
<path d="M20.3668 6H16.914V19.6232C16.914 21.2464 15.586 22.5797 13.9334 22.5797C12.2808 22.5797 10.9528 21.2464 10.9528 19.6232C10.9528 18.029 12.2513 16.7246 13.8449 16.6667V13.2464C10.3331 13.3043 7.5 16.1159 7.5 19.6232C7.5 23.1594 10.3921 26 13.9629 26C17.5337 26 20.4258 23.1304 20.4258 19.6232V12.6377C21.7243 13.5652 23.3179 14.1159 25 14.1449V10.7246C22.4031 10.6377 20.3668 8.55072 20.3668 6Z" fill="#1E1E1E"/>
</g>
<defs>
<clipPath id="clip0_316_4562">
<rect width="20" height="20" fill="white" transform="translate(6 6)"/>
</clipPath>
</defs>
</svg>
