<svg width="22" height="22" viewBox="0 0 22 22" fill="none" xmlns="http://www.w3.org/2000/svg">
<g clip-path="url(#clip0_316_4470)">
<path d="M11 0C4.92484 0 0 4.92484 0 11C0 17.0752 4.92484 22 11 22C17.0752 22 22 17.0752 22 11C22 4.92484 17.0752 0 11 0ZM6.241 9.17625C5.86587 9.17635 5.49913 9.06519 5.18718 8.85685C4.87522 8.64851 4.63205 8.35233 4.48843 8.00578C4.34481 7.65923 4.30718 7.27787 4.38031 6.90994C4.45343 6.542 4.63403 6.20401 4.89925 5.93872C5.16448 5.67343 5.50242 5.49275 5.87034 5.41953C6.23826 5.34631 6.61962 5.38384 6.96621 5.52737C7.3128 5.67091 7.60903 5.914 7.81746 6.22591C8.02588 6.53781 8.13712 6.90452 8.13712 7.27965C8.137 7.78254 7.9372 8.2648 7.58165 8.62044C7.2261 8.97608 6.74389 9.176 6.241 9.17625ZM11 18.6928C10.625 18.6928 10.2584 18.5816 9.94657 18.3733C9.63476 18.1649 9.39172 17.8688 9.24821 17.5223C9.1047 17.1758 9.06715 16.7946 9.14031 16.4268C9.21347 16.059 9.39406 15.7211 9.65924 15.4559C9.92442 15.1908 10.2623 15.0102 10.6301 14.937C10.9979 14.8638 11.3791 14.9014 11.7256 15.0449C12.0721 15.1884 12.3682 15.4314 12.5766 15.7433C12.7849 16.0551 12.8961 16.4217 12.8961 16.7967C12.8961 17.2996 12.6964 17.7819 12.3408 18.1374C11.9852 18.493 11.5029 18.6928 11 18.6928ZM11 13.9338C10.625 13.9338 10.2584 13.8226 9.94657 13.6143C9.63476 13.4059 9.39172 13.1098 9.24821 12.7633C9.1047 12.4168 9.06715 12.0356 9.14031 11.6678C9.21347 11.3 9.39406 10.9621 9.65924 10.6969C9.92442 10.4318 10.2623 10.2512 10.6301 10.178C10.9979 10.1048 11.3791 10.1424 11.7256 10.2859C12.0721 10.4294 12.3682 10.6724 12.5766 10.9843C12.7849 11.2961 12.8961 11.6627 12.8961 12.0377C12.8963 12.2868 12.8474 12.5335 12.7522 12.7637C12.657 12.994 12.5174 13.2032 12.3413 13.3794C12.1652 13.5556 11.9561 13.6954 11.7259 13.7908C11.4958 13.8862 11.2491 13.9352 11 13.9352V13.9338ZM11 9.17481C10.6249 9.17491 10.2581 9.06376 9.94617 8.85541C9.63422 8.64707 9.39105 8.35089 9.24743 8.00434C9.1038 7.65779 9.06618 7.27643 9.1393 6.9085C9.21243 6.54056 9.39303 6.20258 9.65825 5.93728C9.92348 5.67199 10.2614 5.49131 10.6293 5.41809C10.9973 5.34487 11.3786 5.3824 11.7252 5.52594C12.0718 5.66947 12.368 5.91256 12.5765 6.22447C12.7849 6.53637 12.8961 6.90308 12.8961 7.27821C12.8963 7.52736 12.8474 7.7741 12.7522 8.00434C12.657 8.23458 12.5174 8.44381 12.3413 8.62007C12.1652 8.79633 11.9561 8.93618 11.726 9.03161C11.4958 9.12704 11.2491 9.17619 11 9.17625V9.17481ZM15.759 9.17481C15.3839 9.17481 15.0172 9.06358 14.7053 8.85518C14.3934 8.64678 14.1503 8.35057 14.0068 8.00401C13.8632 7.65745 13.8257 7.27611 13.8988 6.90821C13.972 6.5403 14.1527 6.20236 14.4179 5.93711C14.6831 5.67187 15.0211 5.49124 15.389 5.41805C15.7569 5.34487 16.1382 5.38243 16.4848 5.52598C16.8314 5.66953 17.1276 5.91262 17.336 6.22452C17.5444 6.53641 17.6556 6.9031 17.6556 7.27821C17.6558 7.5274 17.6069 7.77418 17.5116 8.00445C17.4164 8.23472 17.2767 8.44397 17.1006 8.62024C16.9245 8.79651 16.7153 8.93634 16.4851 9.03174C16.2549 9.12715 16.0082 9.17625 15.759 9.17625V9.17481Z" fill="#1E1E1E"/>
</g>
<defs>
<clipPath id="clip0_316_4470">
<rect width="22" height="22" fill="white"/>
</clipPath>
</defs>
</svg>
