<svg width="32" height="32" viewBox="0 0 32 32" fill="none" xmlns="http://www.w3.org/2000/svg">
<rect width="32" height="32" fill="white"/>
<g clip-path="url(#clip0_316_4568)">
<path d="M16 5C9.92484 5 5 9.92484 5 16C5 22.0752 9.92484 27 16 27C22.0752 27 27 22.0752 27 16C27 9.92484 22.0752 5 16 5ZM11.241 14.1763C10.8659 14.1763 10.4991 14.0652 10.1872 13.8569C9.87522 13.6485 9.63205 13.3523 9.48843 13.0058C9.34481 12.6592 9.30718 12.2779 9.38031 11.9099C9.45343 11.542 9.63403 11.204 9.89925 10.9387C10.1645 10.6734 10.5024 10.4927 10.8703 10.4195C11.2383 10.3463 11.6196 10.3838 11.9662 10.5274C12.3128 10.6709 12.609 10.914 12.8175 11.2259C13.0259 11.5378 13.1371 11.9045 13.1371 12.2797C13.137 12.7825 12.9372 13.2648 12.5817 13.6204C12.2261 13.9761 11.7439 14.176 11.241 14.1763ZM16 23.6928C15.625 23.6928 15.2584 23.5816 14.9466 23.3733C14.6348 23.1649 14.3917 22.8688 14.2482 22.5223C14.1047 22.1758 14.0671 21.7946 14.1403 21.4268C14.2135 21.059 14.3941 20.7211 14.6592 20.4559C14.9244 20.1908 15.2623 20.0102 15.6301 19.937C15.9979 19.8638 16.3791 19.9014 16.7256 20.0449C17.0721 20.1884 17.3682 20.4314 17.5766 20.7433C17.7849 21.0551 17.8961 21.4217 17.8961 21.7967C17.8961 22.2996 17.6964 22.7819 17.3408 23.1374C16.9852 23.493 16.5029 23.6928 16 23.6928ZM16 18.9338C15.625 18.9338 15.2584 18.8226 14.9466 18.6143C14.6348 18.4059 14.3917 18.1098 14.2482 17.7633C14.1047 17.4168 14.0671 17.0356 14.1403 16.6678C14.2135 16.3 14.3941 15.9621 14.6592 15.6969C14.9244 15.4318 15.2623 15.2512 15.6301 15.178C15.9979 15.1048 16.3791 15.1424 16.7256 15.2859C17.0721 15.4294 17.3682 15.6724 17.5766 15.9843C17.7849 16.2961 17.8961 16.6627 17.8961 17.0377C17.8963 17.2868 17.8474 17.5335 17.7522 17.7637C17.657 17.994 17.5174 18.2032 17.3413 18.3794C17.1652 18.5556 16.9561 18.6954 16.7259 18.7908C16.4958 18.8862 16.2491 18.9352 16 18.9352V18.9338ZM16 14.1748C15.6249 14.1749 15.2581 14.0638 14.9462 13.8554C14.6342 13.6471 14.391 13.3509 14.2474 13.0043C14.1038 12.6578 14.0662 12.2764 14.1393 11.9085C14.2124 11.5406 14.393 11.2026 14.6583 10.9373C14.9235 10.672 15.2614 10.4913 15.6293 10.4181C15.9973 10.3449 16.3786 10.3824 16.7252 10.5259C17.0718 10.6695 17.368 10.9126 17.5765 11.2245C17.7849 11.5364 17.8961 11.9031 17.8961 12.2782C17.8963 12.5274 17.8474 12.7741 17.7522 13.0043C17.657 13.2346 17.5174 13.4438 17.3413 13.6201C17.1652 13.7963 16.9561 13.9362 16.726 14.0316C16.4958 14.127 16.2491 14.1762 16 14.1763V14.1748ZM20.759 14.1748C20.3839 14.1748 20.0172 14.0636 19.7053 13.8552C19.3934 13.6468 19.1503 13.3506 19.0068 13.004C18.8632 12.6575 18.8257 12.2761 18.8988 11.9082C18.972 11.5403 19.1527 11.2024 19.4179 10.9371C19.6831 10.6719 20.0211 10.4912 20.389 10.4181C20.7569 10.3449 21.1382 10.3824 21.4848 10.526C21.8314 10.6695 22.1276 10.9126 22.336 11.2245C22.5444 11.5364 22.6556 11.9031 22.6556 12.2782C22.6558 12.5274 22.6069 12.7742 22.5116 13.0045C22.4164 13.2347 22.2767 13.444 22.1006 13.6202C21.9245 13.7965 21.7153 13.9363 21.4851 14.0317C21.2549 14.1271 21.0082 14.1763 20.759 14.1763V14.1748Z" fill="#1E1E1E"/>
</g>
<defs>
<clipPath id="clip0_316_4568">
<rect width="22" height="22" fill="white" transform="translate(5 5)"/>
</clipPath>
</defs>
</svg>
