<svg width="32" height="32" viewBox="0 0 32 32" fill="none" xmlns="http://www.w3.org/2000/svg">
<rect x="6.3999" y="6.3999" width="19.2" height="19.2" rx="9.6" fill="#1E1E1E"/>
<path fill-rule="evenodd" clip-rule="evenodd" d="M11.806 19.3872C11.6177 19.3315 11.4459 19.2324 11.3051 19.0982C11.1643 18.9641 11.0586 18.7989 10.9969 18.6165C10.6446 17.6738 10.5402 13.7376 11.2187 12.9606C11.4446 12.7078 11.7634 12.5522 12.1061 12.5275C13.9265 12.3364 19.5508 12.3619 20.1967 12.5912C20.3784 12.6487 20.5444 12.7456 20.6822 12.8747C20.8201 13.0037 20.9262 13.1616 20.9927 13.3364C21.3777 14.3109 21.3907 17.8522 20.9405 18.7885C20.8211 19.0322 20.6212 19.2296 20.3729 19.349C19.6943 19.6802 12.7064 19.6738 11.806 19.3872ZM14.6964 17.5401L17.9587 15.8841L14.6964 14.2153V17.5401Z" fill="white"/>
</svg>
