<svg width="20" height="20" viewBox="0 0 20 20" fill="none" xmlns="http://www.w3.org/2000/svg">
<rect x="0.399902" y="0.399902" width="19.2" height="19.2" rx="9.6" fill="#1E1E1E"/>
<path fill-rule="evenodd" clip-rule="evenodd" d="M5.80597 13.3872C5.61768 13.3315 5.44588 13.2324 5.30507 13.0982C5.16426 12.9641 5.05856 12.7989 4.99691 12.6165C4.64457 11.6738 4.54018 7.73763 5.21874 6.96058C5.44458 6.7078 5.76344 6.55217 6.1061 6.52747C7.92649 6.33639 13.5508 6.36187 14.1967 6.59116C14.3784 6.6487 14.5444 6.74563 14.6822 6.87468C14.8201 7.00374 14.9262 7.16157 14.9927 7.33636C15.3777 8.31086 15.3907 11.8522 14.9405 12.7885C14.8211 13.0322 14.6212 13.2296 14.3729 13.349C13.6943 13.6802 6.70637 13.6738 5.80597 13.3872ZM8.6964 11.5401L11.9587 9.88407L8.6964 8.21532V11.5401Z" fill="white"/>
</svg>
