<svg width="19" height="17" viewBox="0 0 19 17" fill="none" xmlns="http://www.w3.org/2000/svg">
<path d="M9.5 0.410645C11.1272 0.410645 12.6323 0.722326 14.0151 1.34569C15.3979 1.96905 16.4911 2.81669 17.2946 3.88861C18.0982 4.96053 18.5 6.12975 18.5 7.39626C18.5 8.66278 18.0982 9.83364 17.2946 10.9089C16.4911 11.9841 15.3996 12.8334 14.0201 13.4567C12.6406 14.0801 11.1339 14.3918 9.5 14.3918C8.98438 14.3918 8.45201 14.3555 7.9029 14.2829C5.51897 15.9122 4.25 16.7368 4.09598 16.7566C4.02232 16.783 3.95201 16.7797 3.88504 16.7467C3.85826 16.7269 3.83817 16.7005 3.82478 16.6675C3.81138 16.6346 3.80469 16.6049 3.80469 16.5785V16.5389C3.84487 16.2816 4.14955 15.2097 4.71875 13.3232C3.42634 12.6899 2.40011 11.8505 1.64007 10.805C0.880022 9.75943 0.5 8.6232 0.5 7.39626C0.5 6.12975 0.901786 4.96053 1.70536 3.88861C2.50893 2.81669 3.60212 1.96905 4.98493 1.34569C6.36775 0.722326 7.87277 0.410645 9.5 0.410645Z" fill="#3C1E1E"/>
</svg>
