<svg width="1220" height="1010" viewBox="0 0 1220 1010" fill="none" xmlns="http://www.w3.org/2000/svg">
<path d="M66.7002 600.472C147.06 612.05 227.559 609.349 306.734 590.859C374.79 574.963 446.859 547.486 486.139 485.929C504.822 456.646 510.705 416.844 497.191 384.319C482.101 347.987 451.658 322.515 413.695 312.19C339.014 291.904 266.533 343.624 235.497 409.328C179.058 528.818 233.505 669.43 335.805 744.448C451.608 829.362 615.616 811.054 735.615 745.924C859.154 678.877 950.907 560.134 1021.66 441.477C1060.22 376.811 1090.7 304.892 1091.62 228.505C1092.4 164.163 1066.02 98.167 1019.86 53.1248C969.842 4.3436 896.173 -13.1642 830.141 11.4546C761.87 36.9224 711.099 91.4481 672.263 151.347C601.843 259.887 571.146 395.682 583.774 524.118C596.757 656.083 652.745 778.83 746.8 872.763C835.273 961.126 954.284 1022.74 1078.37 1040.31C1110.6 1044.88 1143 1047.35 1175.52 1046.53C1199.16 1045.94 1221.37 1024.87 1219.79 1000.41C1218.2 975.946 1198.99 955.514 1173.66 956.145C1159.7 956.498 1145.72 956.352 1131.78 955.555C1125.35 955.188 1118.92 954.714 1112.52 954.108C1110.92 953.967 1109.33 953.761 1107.72 953.621C1102.5 953.164 1111.72 954.081 1111.76 954.102C1108.17 953.265 1104.26 953.15 1100.6 952.639C1072.99 948.718 1045.68 942.577 1019.02 934.405C1012.87 932.515 1006.75 930.515 1000.65 928.406C994.558 926.297 987.242 921.87 981.001 921.174C981.131 921.171 989.118 924.5 984.413 922.536C982.925 921.915 981.438 921.317 979.95 920.697C976.973 919.456 974.019 918.194 971.063 916.91C964.167 913.906 957.333 910.749 950.562 907.461C925.908 895.495 902.127 881.709 879.463 866.252C876.8 864.441 874.158 862.587 871.517 860.732C870.196 859.805 861.938 853.9 867.025 857.549C872.112 861.197 863.94 855.204 862.661 854.211C859.266 851.591 855.87 848.927 852.538 846.219C842.102 837.777 831.941 828.983 822.141 819.813C812.341 810.643 802.127 800.353 792.716 790.068C788.366 785.32 784.123 780.504 779.943 775.6C778.297 773.66 775.974 769.369 773.759 768.2C773.89 768.262 779.061 774.924 775.963 770.931C774.314 768.817 772.644 766.726 771.016 764.59C754.319 742.891 739.352 719.878 726.401 695.759C723.265 689.923 720.259 684.04 717.359 678.09C715.909 675.104 714.544 672.052 713.073 669.067C710.808 664.449 714.477 671.945 714.417 672.185C714.675 671.008 712.276 667.261 711.774 666.078C706.12 652.808 701.047 639.31 696.535 625.626C692.022 611.943 688.091 598.074 684.721 584.063C683.156 577.587 681.742 571.086 680.415 564.583C679.762 561.32 679.13 558.057 678.542 554.772C678.175 552.783 676.31 541.215 677.267 547.639C678.223 554.062 676.732 543.788 676.502 542.1C675.988 538.249 675.497 534.398 675.07 530.545C674.25 523.38 673.581 516.191 673.042 509C672.019 495.157 671.516 481.261 671.512 467.398C671.518 452.949 672.088 438.51 673.201 424.103C673.458 420.778 673.758 417.452 674.059 414.148C674.22 412.496 674.403 410.844 674.563 409.17C675.041 403.931 674.161 412.801 674.12 412.932C676.451 406.007 676.181 397.117 677.375 389.825C681.898 361.875 688.553 334.271 697.305 307.362C699.366 301.028 701.536 294.735 703.815 288.483C704.966 285.357 706.182 282.273 707.333 279.147C709.141 274.271 706.203 282.251 706.053 282.297C706.742 282.066 708.781 275.732 709.235 274.617C714.635 261.857 720.537 249.304 726.944 237.022C733.352 224.741 740.807 211.722 748.54 199.565C752.112 193.937 755.795 188.394 759.587 182.914C761.483 180.163 763.423 177.454 765.363 174.746C765.953 173.909 769.464 169.498 765.911 173.975C762.168 178.695 766.949 172.739 767.625 171.857C776.841 160.082 786.741 148.856 797.417 138.396C802.35 133.565 807.439 128.882 812.683 124.392C813.856 123.391 815.255 121.8 816.629 121.078C815.577 121.62 808.874 126.943 815.714 121.964C818.92 119.62 822.104 117.255 825.399 115.017C830.962 111.236 836.703 107.668 842.602 104.422C845.519 102.822 848.571 101.436 851.489 99.835C855.994 97.3774 848.635 101.347 848.327 101.159C848.898 101.494 853.662 98.9658 854.437 98.6678C861.067 96.1229 867.857 94.0086 874.766 92.3692C876.45 91.9657 886.694 90.0405 880.013 91.1546C873.332 92.2686 884.995 90.7915 887.054 90.684C893.295 90.3383 901.014 92.1968 907 91.0537C906.935 91.0551 897.444 89.5368 902.239 90.5878C903.656 90.9057 905.134 91.0488 906.55 91.3234C910.34 92.0479 914.089 92.9252 917.778 93.9773C918.629 94.2201 925.585 96.9839 925.946 96.6293C925.798 96.7842 917.384 92.7922 921.702 94.9161C922.973 95.5407 924.329 96.0552 925.621 96.636C931.229 99.2323 936.649 102.223 941.859 105.543C943.288 106.447 951.06 111.971 945.464 107.79C939.867 103.61 947.429 109.486 948.732 110.565C953.898 114.928 958.79 119.622 963.383 124.604C965.38 126.754 967.249 128.993 969.182 131.188C972.425 134.874 966.532 127.902 966.533 127.923C967.013 129.107 968.428 130.422 969.188 131.47C972.983 136.664 976.522 142.058 979.782 147.588C983.042 153.118 985.939 158.981 988.815 164.823C991.034 169.312 987.087 160.975 987.087 160.997C987.266 162.295 988.298 163.944 988.779 165.171C990.083 168.442 991.279 171.736 992.411 175.054C994.351 180.763 996.032 186.543 997.454 192.393C998.165 195.307 998.812 198.245 999.393 201.183C999.343 200.881 1000.21 206.981 1000.47 207.084C999.615 206.711 999.171 196.719 999.885 203.994C1001.25 217.785 1001.62 231.467 1000.63 245.329C1000.53 246.72 1000.81 249.687 1000.18 250.893C1000.3 250.63 1001.31 242.669 1000.51 248.087C999.884 252.374 999.301 256.682 998.564 260.949C997.165 268.875 995.419 276.765 993.388 284.552C991.519 291.772 989.367 298.932 987.04 306.009C985.855 309.57 984.626 313.11 983.332 316.63C982.696 318.4 982.016 320.15 981.358 321.899C978.336 330.01 983.063 318.284 980.8 323.234C974.241 337.623 967.876 351.986 960.463 365.981C945.511 394.189 928.452 421.226 910.753 447.756C902.061 460.778 893.15 473.676 883.974 486.361C883.004 487.705 876.821 496.142 879.924 491.934C883.026 487.726 876.777 496.099 875.763 497.422C870.651 504.144 865.473 510.803 860.207 517.398C841.066 541.311 820.734 564.271 798.896 585.766C787.838 596.647 776.383 607.166 764.527 617.195C761.841 619.485 759.182 622.035 756.273 624.048C762.689 619.576 757.019 623.403 754.072 625.677C747.943 630.424 741.703 635.022 735.373 639.492C722.67 648.432 709.587 656.816 696.1 664.513C689.967 668.024 683.723 671.364 677.41 674.553C674.254 676.159 671.053 677.7 667.852 679.22C666.369 679.923 664.614 681.087 663.017 681.467C666.32 680.661 668.888 678.96 663.962 680.992C635.353 692.907 606.028 701.691 575.556 707.417C566.652 709.098 582.525 706.601 573.545 707.762C570.04 708.204 566.535 708.688 563.028 709.064C555.43 709.893 547.827 710.484 540.197 710.815C525.046 711.496 509.832 711.202 494.725 709.821C493.943 709.751 489.996 709.854 489.529 709.299C489.462 709.214 498.385 710.549 492.942 709.62C489.523 709.018 486.044 708.634 482.626 708.032C475.202 706.775 467.815 705.235 460.51 703.411C453.204 701.587 445.958 699.48 438.835 697.067C435.537 695.964 432.278 694.707 429 693.56C423.996 691.819 431.627 694.677 431.779 694.674C430.11 694.752 426.898 692.605 425.365 691.899C412.862 686.321 400.795 679.823 389.422 672.204C387.024 670.604 384.704 668.591 382.202 667.167C382.18 667.168 389.412 672.768 385.615 669.635C384.49 668.704 383.3 667.817 382.153 666.908C377.189 662.91 372.373 658.713 367.727 654.34C363.081 649.967 358.582 645.395 354.276 640.667C352.278 638.474 350.366 636.235 348.433 634.019C343.478 628.372 353.585 640.812 347.342 632.674C339.582 622.507 332.571 611.783 326.395 600.585C323.556 595.437 321.016 590.13 318.413 584.869C316.195 580.402 320.211 588.975 320.188 588.867C319.812 587.508 319.024 586.114 318.499 584.824C317.197 581.661 315.96 578.498 314.809 575.289C310.53 563.466 307.133 551.3 304.774 538.939C304.506 537.534 304.303 536.085 304.014 534.681C302.981 529.82 304.765 539.568 304.765 539.547C305.442 537.667 303.959 533.055 303.743 530.998C303.138 524.827 302.793 518.63 302.73 512.426C302.668 506.222 303.062 500.096 303.39 493.906C303.844 485.414 301.864 503.006 303.296 494.624C303.858 491.337 304.332 488.051 304.959 484.784C306.058 479.164 307.441 473.603 309.042 468.124C309.995 464.894 311.123 461.746 312.164 458.557C314.468 451.415 308.514 466.747 312.681 457.332C315.209 451.595 318.045 446.005 321.209 440.581C322.864 437.726 324.607 434.913 326.437 432.164C326.627 431.878 329.195 428.05 329.238 428.071C329.436 428.197 323.484 435.197 328.334 429.456C333.184 423.715 337.658 418.698 342.917 413.86C343.194 413.616 346.65 410.746 346.582 410.595C346.696 410.875 339.699 415.619 343.936 412.754C347.082 410.65 350.072 408.354 353.306 406.356C354.335 405.728 361.667 402.517 361.779 401.669C361.742 401.952 353.622 404.831 358.425 403.148C359.955 402.618 361.438 401.958 362.946 401.428C366.026 400.345 369.156 399.586 372.261 398.654C373.835 398.188 379.077 397.754 372.277 398.372C364.481 399.075 373.144 398.354 374.856 398.253C377.76 398.063 380.627 398.243 383.51 398.14C391.771 397.883 374.881 396.3 382.986 397.977C385.841 398.569 388.672 399.075 391.464 399.842C393.341 400.346 403.63 403.8 396.943 401.443C390.255 399.086 398.921 402.704 400.545 403.603C401.796 404.293 402.985 405.115 404.235 405.762C410.025 408.788 401.427 406.362 401.916 403.77C401.818 404.293 407.593 408.687 408.257 409.345C409.232 410.302 410.103 411.52 411.162 412.388C414.87 415.436 407.117 405.594 409.137 409.935C410.181 412.169 412.021 415.104 413.494 417.091C416.283 420.83 411.094 413.279 411.626 412.791C411.498 412.902 412.917 416.495 413.011 416.819C413.503 418.61 415.546 428.222 414.285 420.763C413.025 413.304 413.981 423.915 414.132 425.973C414.66 433.664 416.606 416.506 414.071 426.148C413.386 428.7 412.358 431.455 411.912 434.046C411.178 438.422 413.213 429.81 413.795 429.581C413.278 429.787 412.321 432.801 412.028 433.349C410.439 436.246 408.761 439.058 407.172 441.932C403.281 448.955 412.534 435.769 407.282 442.039C405.377 444.312 403.471 446.586 401.455 448.776C399.057 451.364 396.527 453.867 393.951 456.263C392.823 457.306 391.672 458.306 390.522 459.35C386.114 463.389 390.078 458.86 392.339 458.032C387.149 459.94 381.632 465.912 376.856 468.939C371.053 472.638 365.07 476.016 358.951 479.158C357.448 479.926 348.543 484.666 354.4 481.508C360.258 478.35 350.097 483.246 348.375 483.91C340.864 486.82 333.214 489.365 325.541 491.822C308.924 497.155 292.075 501.733 275.035 505.534C267.174 507.28 259.267 508.875 251.355 510.296C249.367 510.662 247.378 510.986 245.411 511.33C244.741 511.452 238.101 512.479 243.443 511.674C248.786 510.87 242.145 511.831 241.474 511.932C238.813 512.29 236.153 512.671 233.491 512.986C216.179 515.165 198.766 516.587 181.314 517.207C165.206 517.778 149.084 517.677 132.992 516.924C124.284 516.496 115.571 515.894 106.876 515.076C104.876 514.878 102.876 514.659 100.855 514.484C101.528 514.535 108.229 515.438 102.899 514.702C98.243 514.082 93.5878 513.484 88.9314 512.821C65.6264 509.461 39.2865 519.897 34.0005 545.52C29.4838 567.417 41.6758 596.845 66.6998 600.451L66.7002 600.472Z" fill="#404040" fill-opacity="0.3"/>
</svg>
