<svg width="121" height="167" viewBox="0 0 121 167" fill="none" xmlns="http://www.w3.org/2000/svg">
<path fill-rule="evenodd" clip-rule="evenodd" d="M20.9321 48.1704C20.9321 47.7936 20.6429 47.618 20.2932 47.7436C20.2533 47.7562 20.22 47.7687 20.1801 47.7813C19.5146 47.9821 18.8292 48.1829 18.1504 48.3837C15.8877 49.049 13.645 49.8334 11.3357 50.348C11.1028 49.6577 10.8166 48.2582 10.5238 46.8462C10.231 45.4342 9.87826 43.6145 9.63868 42.9179C11.928 42.2778 13.971 41.6565 16.1406 40.9976C16.7927 40.7968 17.4649 40.5959 18.1504 40.3888C18.8957 40.1629 20.1735 39.3283 20.5728 38.8074C20.9654 38.2865 20.8989 37.1295 20.9321 36.3827C20.9388 36.1568 20.9454 35.912 20.9521 35.661C21.0519 31.3058 21.6442 27.8314 22.2698 23.5138C22.7629 20.1102 25.2866 16.7855 28.3657 15.7635C33.8931 13.9289 39.4928 16.297 40.9768 21.8822C42.6871 28.3397 40.7772 36.1736 35.6595 40.9367C33.6208 42.8327 31.9471 43.9778 29.6663 44.6814C28.8974 44.9185 28.3324 45.6024 28.3324 46.407C28.3324 46.9529 28.3324 47.4863 28.3324 48.1641C28.3324 48.5406 28.3324 48.8105 28.3324 49.049C28.3324 49.5573 28.3324 49.9024 28.3324 50.6994C28.3324 52.2808 29.4505 53.1531 30.6617 53.0402C36.1786 52.5256 39.4795 50.6994 41.9618 48.9674C42.0083 49.8083 41.9884 52.7703 41.9751 54.8224C41.9751 55.5755 41.9618 56.2031 41.9618 56.5545C40.2381 59.4789 22.9153 64.0224 21.2383 55.5253C20.7125 52.8519 20.839 50.1472 20.9055 48.7854C20.9188 48.5218 20.9255 48.3084 20.9321 48.1578L20.9321 48.1704ZM29.1244 24.2355C29.5436 22.767 30.5152 21.8131 32.1191 22.1709C34.2487 22.6541 35.3867 28.6409 32.8245 32.8518C31.607 34.8574 30.4076 35.691 29.5427 35.9349C29.0693 36.0684 28.6549 35.7018 28.5594 35.2193C28.2524 33.6688 28.2366 31.6461 28.2592 29.9086C28.2992 27.185 28.9314 24.9007 29.1244 24.2292L29.1244 24.2355Z" fill="#EBF4FE"/>
<path d="M47.8151 30.1023C47.8151 29.874 47.8024 29.6457 47.7771 29.4174C47.7771 29.1637 47.7771 28.8847 47.7771 28.5803C47.7771 27.7686 47.8024 26.9061 47.8532 25.9929C47.9039 25.0797 47.9546 24.306 48.0054 23.6719L54.7782 23.786C54.7021 24.6485 54.6133 25.6251 54.5119 26.7159C54.4358 27.8066 54.385 28.9354 54.3597 30.1023H47.8151ZM47.6629 57.3459C47.5868 55.7732 47.5361 54.099 47.5107 52.3233C47.4853 50.5223 47.4727 48.7213 47.4727 46.9203C47.4727 44.5612 47.498 42.2655 47.5488 40.0333C47.5995 37.801 47.6629 35.7717 47.739 33.9453L54.2836 33.9072C54.1821 35.0741 54.1187 36.52 54.0933 38.2449C54.0679 39.9445 54.0553 41.7328 54.0553 43.6099C54.0553 45.4617 54.0679 47.2881 54.0933 49.0891C54.1187 50.8901 54.144 52.5262 54.1694 53.9975C54.2201 55.4434 54.2582 56.5595 54.2836 57.3459H47.6629Z" fill="#EBF4FE"/>
<path d="M58.1521 57.422C58.076 55.1897 58.0126 53.1224 57.9619 51.2199C57.9365 49.3174 57.9238 47.4403 57.9238 45.5885C57.9238 43.7368 57.9365 41.885 57.9619 40.0333C58.0126 38.1561 58.0887 36.1522 58.1902 34.0214H64.6206C64.5191 35.1629 64.4303 36.3171 64.3542 37.4839C65.2167 36.3932 66.244 35.4927 67.4363 34.7824C68.6285 34.0468 70.0363 33.6789 71.6598 33.6789C73.2579 33.6789 74.5642 33.9453 75.5789 34.478C76.6189 35.0107 77.4307 35.7463 78.0141 36.6849C78.6229 37.6234 79.0541 38.7015 79.3078 39.9191C79.5868 41.1113 79.7644 42.405 79.8405 43.8002C79.9166 45.17 79.9546 46.5524 79.9546 47.9476C79.9546 49.4696 79.9293 50.9282 79.8785 52.3233C79.8278 53.7185 79.7771 54.8853 79.7263 55.8239C79.6756 56.7624 79.6375 57.3205 79.6122 57.4981H73.2198C73.2706 56.458 73.3213 55.3546 73.372 54.1877C73.4228 52.9955 73.4735 51.8287 73.5242 50.6872C73.575 49.5203 73.6003 48.4676 73.6003 47.529C73.6003 42.126 72.7252 39.4245 70.9749 39.4245C69.529 39.4245 68.2099 40.0586 67.0177 41.3269C65.8509 42.5699 64.8743 44.1426 64.0879 46.0451C64.0879 46.2988 64.0879 46.5524 64.0879 46.8061C64.0879 48.0237 64.0879 49.292 64.0879 50.6111C64.1133 51.9048 64.1386 53.1477 64.164 54.3399C64.2147 55.5068 64.2528 56.5215 64.2781 57.3839L58.1521 57.422Z" fill="#EBF4FE"/>
<path d="M83.8247 57.46C83.7232 56.2424 83.6344 54.6824 83.5583 52.7799C83.5076 50.8774 83.4823 48.8101 83.4823 46.5778C83.4823 44.5992 83.4949 42.5572 83.5203 40.4518C83.571 38.3464 83.6344 36.279 83.7105 34.2497C83.812 32.195 83.9135 30.2798 84.0149 28.5042C84.1418 26.7032 84.2813 25.1304 84.4335 23.786L91.0541 24.2426C90.699 26.83 90.42 29.4554 90.217 32.1189C90.0395 34.757 89.9253 37.4459 89.8746 40.1855C91.2951 39.1962 92.9439 38.1561 94.8211 37.0654C96.7235 35.9493 99.0065 34.6936 101.67 33.2985L105.247 39.2723C102.507 40.1347 100.085 41.124 97.9792 42.2401C95.8738 43.3309 94.1488 44.4343 92.8044 45.5505C92.5508 45.728 92.3859 45.8549 92.3098 45.931C92.2337 46.0071 92.1956 46.0578 92.1956 46.0832C92.1956 46.2354 92.6142 46.5144 93.4513 46.9203C94.5674 47.5037 95.7216 48.0744 96.9138 48.6325C98.106 49.1906 99.4378 49.7613 100.909 50.3447C102.38 50.9028 104.067 51.4989 105.97 52.1331L103.344 57.7644C101.036 57.0795 98.7275 56.2171 96.4192 55.177C94.1108 54.137 92.0181 53.0843 90.1409 52.0189C90.1663 52.8814 90.2044 53.7565 90.2551 54.6443C90.3312 55.5322 90.3946 56.42 90.4453 57.3078L83.8247 57.46Z" fill="#EBF4FE"/>
<path d="M19.8487 116.784L13.9192 113.622C15.395 111.988 16.8313 110.301 18.228 108.562C19.6247 106.849 20.9556 105.083 22.2206 103.265C20.9819 101.605 19.7433 99.8257 18.5047 97.9282C17.2661 96.0044 16.1197 94.1201 15.0656 92.2754C14.0114 90.4306 13.1549 88.7835 12.4961 87.3341L18.821 84.5669C19.2953 85.8319 19.9015 87.2023 20.6394 88.6781C21.4036 90.1539 22.2337 91.656 23.1298 93.1846C24.0521 94.7131 25.0009 96.1757 25.976 97.5724C28.8221 92.9606 31.1676 88.4146 33.0124 83.9344L39.5744 86.5435C38.3885 88.8099 37.0445 91.2476 35.5423 93.8566C34.0665 96.4392 32.4721 99.0746 30.7591 101.763C29.0725 104.424 27.3068 107.033 25.4621 109.59C23.6173 112.172 21.7462 114.57 19.8487 116.784Z" fill="#EBF4FE"/>
<path d="M50.0713 109.313C47.963 109.313 46.1182 108.97 44.537 108.285C42.9822 107.6 41.6908 106.664 40.663 105.479C39.6352 104.266 38.871 102.883 38.3703 101.328C37.8696 99.773 37.6192 98.139 37.6192 96.4261C37.6192 94.6867 37.9223 93.0791 38.5284 91.6033C39.1609 90.1012 40.0174 88.7967 41.0979 87.6898C42.2047 86.583 43.496 85.7265 44.9718 85.1204C46.4477 84.4879 48.0552 84.1716 49.7946 84.1716C51.613 84.1716 53.2996 84.4879 54.8544 85.1204C56.4093 85.7528 57.7665 86.6357 58.9261 87.7689C60.0856 88.9021 60.9817 90.233 61.6141 91.7615C62.273 93.29 62.6024 94.9502 62.6024 96.7423C62.6024 100.722 61.5087 103.818 59.3214 106.032C57.134 108.219 54.0507 109.313 50.0713 109.313ZM50.0317 102.909C51.9556 102.909 53.4182 102.369 54.4196 101.288C55.4474 100.208 55.9613 98.6529 55.9613 96.6237C55.9613 94.8053 55.4079 93.3427 54.301 92.2358C53.1942 91.129 51.7447 90.5756 49.9527 90.5756C48.8722 90.5756 47.8839 90.8654 46.9879 91.4452C46.0919 91.9986 45.3672 92.7497 44.8137 93.6985C44.2867 94.6208 44.0231 95.6486 44.0231 96.7818C44.0231 97.7833 44.2208 98.7583 44.6161 99.7071C45.0377 100.656 45.6966 101.433 46.5926 102.039C47.4886 102.619 48.635 102.909 50.0317 102.909Z" fill="#EBF4FE"/>
<path d="M73.159 109.313C71.4723 109.313 70.0756 109.01 68.9688 108.404C67.8883 107.824 67.0186 107.02 66.3597 105.992C65.7273 104.965 65.2529 103.818 64.9367 102.553C64.6468 101.262 64.4491 99.9311 64.3437 98.5607C64.2646 97.1639 64.2251 95.8199 64.2251 94.5286C64.2251 93.0528 64.2646 91.5506 64.3437 90.0221C64.4491 88.4936 64.5545 86.8202 64.6599 85.0018L71.894 84.5669C71.8149 85.1204 71.6963 85.9505 71.5382 87.0573C71.3801 88.1642 71.2352 89.4292 71.1034 90.8523C70.9716 92.2754 70.9057 93.7643 70.9057 95.3192C70.9057 97.8755 71.1297 99.773 71.5778 101.012C72.0258 102.224 72.6978 102.83 73.5938 102.83C75.3858 102.83 76.7035 101.525 77.5468 98.9165C78.3902 96.3075 78.8118 92.1831 78.8118 86.5435V84.7251L82.1719 84.646L86.2435 84.5669C85.8746 87.0442 85.5979 89.3238 85.4134 91.4057C85.2289 93.4876 85.1103 95.2401 85.0576 96.6632C85.0049 98.06 84.9786 98.9955 84.9786 99.4699C84.9786 100.682 85.084 101.552 85.2948 102.079C85.5056 102.58 85.8746 102.83 86.4016 102.83C86.6652 102.83 86.9551 102.777 87.2713 102.672C87.5876 102.566 87.9565 102.382 88.3782 102.118L88.1015 108.918C87.1 109.076 86.2304 109.155 85.4924 109.155C84.2275 109.155 83.1865 108.918 82.3696 108.443C81.5789 107.969 80.9465 107.336 80.4721 106.546C79.6551 107.415 78.6405 108.088 77.4283 108.562C76.2423 109.063 74.8192 109.313 73.159 109.313Z" fill="#EBF4FE"/>
<path d="M90.1618 109.155C90.2672 106.967 90.3462 104.78 90.399 102.593C90.4517 100.405 90.478 98.2444 90.478 96.1098C90.4517 94.1596 90.4121 92.2358 90.3594 90.3384C90.3331 88.4146 90.2672 86.5566 90.1618 84.7646L96.8029 84.5669C96.8292 85.542 96.8688 86.5435 96.9215 87.5712C97.7648 86.5171 98.7399 85.6738 99.8467 85.0413C100.98 84.3825 102.271 84.053 103.721 84.053C104.274 84.053 104.986 84.1321 105.855 84.2902C106.725 84.4483 107.608 84.7514 108.504 85.1994L107.753 91.8801C107.094 91.4848 106.382 91.208 105.618 91.0499C104.88 90.8654 104.261 90.7732 103.76 90.7732C102.074 90.7732 100.637 91.5375 99.4514 93.066C98.2919 94.5681 97.5012 96.6632 97.0796 99.3513C97.0796 101.196 97.0532 102.962 97.0005 104.648C96.9742 106.309 96.9083 107.811 96.8029 109.155H90.1618Z" fill="#EBF4FE"/>
<path d="M33.402 166.513C31.9525 166.513 30.7534 166.197 29.8047 165.565C28.8823 164.959 28.1444 164.115 27.591 163.035C27.0639 161.954 26.6686 160.716 26.4051 159.319C26.1679 157.922 26.0098 156.433 25.9307 154.852C25.878 153.244 25.8517 151.637 25.8517 150.029C25.8517 148.633 25.8912 147.104 25.9702 145.444C26.0493 143.757 26.1415 142.057 26.247 140.344C26.3787 138.605 26.5105 136.971 26.6423 135.443C26.8004 133.914 26.9453 132.583 27.0771 131.45L34.2321 131.529C34.0213 132.873 33.8236 134.402 33.6391 136.115C33.4547 137.801 33.2965 139.514 33.1648 141.254C33.0594 142.993 32.9671 144.6 32.8881 146.076C32.8354 147.552 32.809 148.725 32.809 149.594C32.809 151.993 32.8485 153.877 32.9276 155.247C33.033 156.618 33.1779 157.593 33.3624 158.173C33.5733 158.726 33.85 159.003 34.1926 159.003C34.6406 159.003 35.1281 158.726 35.6552 158.173C36.1823 157.593 36.6962 156.947 37.1969 156.236L40.557 162.916C39.74 163.812 38.7649 164.629 37.6317 165.367C36.4985 166.131 35.0886 166.513 33.402 166.513Z" fill="#EBF4FE"/>
<path d="M43.6765 137.854C43.6765 137.617 43.6633 137.38 43.6369 137.142C43.6369 136.879 43.6369 136.589 43.6369 136.273C43.6369 135.429 43.6633 134.533 43.716 133.585C43.7687 132.636 43.8214 131.832 43.8741 131.173L50.9105 131.292C50.8315 132.188 50.7392 133.202 50.6338 134.336C50.5547 135.469 50.502 136.642 50.4757 137.854H43.6765ZM43.5183 166.158C43.4393 164.524 43.3866 162.784 43.3602 160.94C43.3339 159.069 43.3207 157.197 43.3207 155.326C43.3207 152.875 43.347 150.49 43.3997 148.171C43.4525 145.852 43.5183 143.744 43.5974 141.846L50.3966 141.807C50.2912 143.019 50.2253 144.521 50.199 146.313C50.1726 148.079 50.1594 149.937 50.1594 151.887C50.1594 153.811 50.1726 155.708 50.199 157.58C50.2253 159.451 50.2517 161.15 50.278 162.679C50.3307 164.181 50.3703 165.341 50.3966 166.158H43.5183Z" fill="#EBF4FE"/>
<path d="M54.3762 166.237C54.2972 163.918 54.2313 161.77 54.1786 159.793C54.1522 157.817 54.139 155.867 54.139 153.943C54.139 152.019 54.1522 150.095 54.1786 148.171C54.2313 146.221 54.3103 144.139 54.4158 141.926H61.0964C60.991 143.111 60.8987 144.311 60.8197 145.523C61.7157 144.39 62.783 143.454 64.0216 142.716C65.2603 141.952 66.7229 141.57 68.4095 141.57C70.0698 141.57 71.427 141.846 72.4811 142.4C73.5616 142.953 74.405 143.718 75.0111 144.693C75.6436 145.668 76.0916 146.788 76.3551 148.053C76.645 149.291 76.8295 150.635 76.9085 152.085C76.9876 153.508 77.0271 154.944 77.0271 156.394C77.0271 157.975 77.0008 159.49 76.9481 160.94C76.8954 162.389 76.8427 163.601 76.79 164.576C76.7372 165.552 76.6977 166.131 76.6714 166.316H70.0303C70.083 165.235 70.1357 164.089 70.1884 162.877C70.2411 161.638 70.2938 160.426 70.3465 159.24C70.3992 158.028 70.4256 156.934 70.4256 155.959C70.4256 150.346 69.5164 147.539 67.698 147.539C66.1958 147.539 64.8254 148.198 63.5868 149.515C62.3745 150.807 61.3599 152.441 60.543 154.417C60.543 154.681 60.543 154.944 60.543 155.208C60.543 156.473 60.543 157.79 60.543 159.161C60.5693 160.505 60.5957 161.796 60.622 163.035C60.6747 164.247 60.7143 165.301 60.7406 166.197L54.3762 166.237Z" fill="#EBF4FE"/>
<path d="M81.0083 166.276C80.9029 165.011 80.8106 163.391 80.7316 161.414C80.6789 159.437 80.6525 157.29 80.6525 154.971C80.6525 152.915 80.6657 150.794 80.692 148.606C80.7447 146.419 80.8106 144.271 80.8897 142.163C80.9951 140.028 81.1005 138.038 81.2059 136.194C81.3377 134.323 81.4826 132.689 81.6408 131.292L88.519 131.766C88.1501 134.454 87.8602 137.182 87.6494 139.949C87.4649 142.69 87.3463 145.483 87.2936 148.329C88.7694 147.302 90.4824 146.221 92.4326 145.088C94.4091 143.928 96.7809 142.624 99.548 141.174L103.264 147.381C100.418 148.277 97.9009 149.305 95.7136 150.464C93.5262 151.597 91.7342 152.744 90.3374 153.903C90.0739 154.088 89.9026 154.219 89.8235 154.299C89.7445 154.378 89.705 154.43 89.705 154.457C89.705 154.615 90.1398 154.905 91.0095 155.326C92.169 155.932 93.3681 156.525 94.6067 157.105C95.8453 157.685 97.2289 158.278 98.7574 158.884C100.286 159.464 102.038 160.083 104.015 160.742L101.287 166.592C98.8892 165.881 96.491 164.985 94.0928 163.904C91.6947 162.824 89.5205 161.73 87.5703 160.623C87.5967 161.519 87.6362 162.429 87.6889 163.351C87.768 164.273 87.8339 165.196 87.8866 166.118L81.0083 166.276Z" fill="#EBF4FE"/>
</svg>
